<?xml version="1.0" encoding="UTF-8" standalone="no"?>
<svg width="174.978mm" height="172.508mm"
 viewBox="0 0 496 489"
 xmlns="http://www.w3.org/2000/svg" xmlns:xlink="http://www.w3.org/1999/xlink"  version="1.2" baseProfile="tiny">
<title>Qt SVG Document</title>
<desc>MATLAB, The MathWorks, Inc. Version 25.1.0.2943329 R2025a</desc>
<defs>
</defs>
<g fill="none" stroke="black" stroke-width="1" fill-rule="evenodd" stroke-linecap="square" stroke-linejoin="bevel" >

<g fill="#ffffff" fill-opacity="1" stroke="none" transform="matrix(0.392109,0,0,0.388904,-288.203,-37.7793)"
font-family="SimSun" font-size="9" font-weight="400" font-style="normal" 
>
<path vector-effect="none" fill-rule="evenodd" d="M734,97 L1999,97 L1999,1355 L734,1355 L734,97"/>
</g>

<g fill="#ffffff" fill-opacity="1" stroke="none" transform="matrix(3.92109e-05,0,0,3.88904e-05,-288.203,-37.7793)"
font-family="SimSun" font-size="9" font-weight="400" font-style="normal" 
>
<path vector-effect="none" fill-rule="evenodd" d="M7.775e+06,1.11e+06 L7.775e+06,1.316e+07 L1.9825e+07,1.316e+07 L1.9825e+07,1.11e+06 L7.775e+06,1.11e+06"/>
</g>

<g fill="#212121" fill-opacity="0.14902" stroke="#212121" stroke-opacity="0.14902" stroke-width="1.33333" stroke-linecap="butt" stroke-linejoin="round" transform="matrix(0.392109,0,0,0.388904,-288.203,-37.7793)"
font-family="SimSun" font-size="9" font-weight="400" font-style="normal" 
>
<polyline fill="none" vector-effect="none" points="777.5,111 777.5,1316 " />
<polyline fill="none" vector-effect="none" points="928.125,111 928.125,1316 " />
<polyline fill="none" vector-effect="none" points="1078.75,111 1078.75,1316 " />
<polyline fill="none" vector-effect="none" points="1229.38,111 1229.38,1316 " />
<polyline fill="none" vector-effect="none" points="1380,111 1380,1316 " />
<polyline fill="none" vector-effect="none" points="1530.63,111 1530.63,1316 " />
<polyline fill="none" vector-effect="none" points="1681.25,111 1681.25,1316 " />
<polyline fill="none" vector-effect="none" points="1831.88,111 1831.88,1316 " />
<polyline fill="none" vector-effect="none" points="1982.5,111 1982.5,1316 " />
<polyline fill="none" vector-effect="none" points="777.5,1316 1982.5,1316 " />
<polyline fill="none" vector-effect="none" points="777.5,1165.38 1982.5,1165.38 " />
<polyline fill="none" vector-effect="none" points="777.5,1014.75 1982.5,1014.75 " />
<polyline fill="none" vector-effect="none" points="777.5,864.125 1982.5,864.125 " />
<polyline fill="none" vector-effect="none" points="777.5,713.5 1982.5,713.5 " />
<polyline fill="none" vector-effect="none" points="777.5,562.875 1982.5,562.875 " />
<polyline fill="none" vector-effect="none" points="777.5,412.25 1982.5,412.25 " />
<polyline fill="none" vector-effect="none" points="777.5,261.625 1982.5,261.625 " />
<polyline fill="none" vector-effect="none" points="777.5,111 1982.5,111 " />
</g>

<g fill="#212121" fill-opacity="1" stroke="#212121" stroke-opacity="1" stroke-width="1.33333" stroke-linecap="square" stroke-linejoin="round" transform="matrix(0.392109,0,0,0.388904,-288.203,-37.7793)"
font-family="SimSun" font-size="9" font-weight="400" font-style="normal" 
>
<polyline fill="none" vector-effect="none" points="777.5,1316 1982.5,1316 " />
<polyline fill="none" vector-effect="none" points="777.5,111 1982.5,111 " />
<polyline fill="none" vector-effect="none" points="777.5,1316 777.5,1303.95 " />
<polyline fill="none" vector-effect="none" points="777.5,123.05 777.5,111 " />
<polyline fill="none" vector-effect="none" points="928.125,1316 928.125,1303.95 " />
<polyline fill="none" vector-effect="none" points="928.125,123.05 928.125,111 " />
<polyline fill="none" vector-effect="none" points="1078.75,1316 1078.75,1303.95 " />
<polyline fill="none" vector-effect="none" points="1078.75,123.05 1078.75,111 " />
<polyline fill="none" vector-effect="none" points="1229.38,1316 1229.38,1303.95 " />
<polyline fill="none" vector-effect="none" points="1229.38,123.05 1229.38,111 " />
<polyline fill="none" vector-effect="none" points="1380,1316 1380,1303.95 " />
<polyline fill="none" vector-effect="none" points="1380,123.05 1380,111 " />
<polyline fill="none" vector-effect="none" points="1530.63,1316 1530.63,1303.95 " />
<polyline fill="none" vector-effect="none" points="1530.63,123.05 1530.63,111 " />
<polyline fill="none" vector-effect="none" points="1681.25,1316 1681.25,1303.95 " />
<polyline fill="none" vector-effect="none" points="1681.25,123.05 1681.25,111 " />
<polyline fill="none" vector-effect="none" points="1831.88,1316 1831.88,1303.95 " />
<polyline fill="none" vector-effect="none" points="1831.88,123.05 1831.88,111 " />
<polyline fill="none" vector-effect="none" points="1982.5,1316 1982.5,1303.95 " />
<polyline fill="none" vector-effect="none" points="1982.5,123.05 1982.5,111 " />
</g>

<g fill="#212121" fill-opacity="1" stroke="#212121" stroke-opacity="1" stroke-width="1" stroke-linecap="square" stroke-linejoin="bevel" transform="matrix(0.392109,0,0,0.388904,13.9168,487.5)"
font-family="Helvetica" font-size="26" font-weight="400" font-style="normal" 
>
<text fill="#212121" fill-opacity="1" stroke="none" xml:space="preserve" x="0" y="0" font-family="Helvetica" font-size="26" font-weight="400" font-style="normal" 
 >0</text>
</g>

<g fill="#212121" fill-opacity="1" stroke="#212121" stroke-opacity="1" stroke-width="1" stroke-linecap="square" stroke-linejoin="bevel" transform="matrix(0.392109,0,0,0.388904,72.9782,487.5)"
font-family="Helvetica" font-size="26" font-weight="400" font-style="normal" 
>
<text fill="#212121" fill-opacity="1" stroke="none" xml:space="preserve" x="0" y="0" font-family="Helvetica" font-size="26" font-weight="400" font-style="normal" 
 >5</text>
</g>

<g fill="#212121" fill-opacity="1" stroke="#212121" stroke-opacity="1" stroke-width="1" stroke-linecap="square" stroke-linejoin="bevel" transform="matrix(0.392109,0,0,0.388904,129.295,487.5)"
font-family="Helvetica" font-size="26" font-weight="400" font-style="normal" 
>
<text fill="#212121" fill-opacity="1" stroke="none" xml:space="preserve" x="0" y="0" font-family="Helvetica" font-size="26" font-weight="400" font-style="normal" 
 >10</text>
</g>

<g fill="#212121" fill-opacity="1" stroke="#212121" stroke-opacity="1" stroke-width="1" stroke-linecap="square" stroke-linejoin="bevel" transform="matrix(0.392109,0,0,0.388904,188.356,487.5)"
font-family="Helvetica" font-size="26" font-weight="400" font-style="normal" 
>
<text fill="#212121" fill-opacity="1" stroke="none" xml:space="preserve" x="0" y="0" font-family="Helvetica" font-size="26" font-weight="400" font-style="normal" 
 >15</text>
</g>

<g fill="#212121" fill-opacity="1" stroke="#212121" stroke-opacity="1" stroke-width="1" stroke-linecap="square" stroke-linejoin="bevel" transform="matrix(0.392109,0,0,0.388904,247.418,487.5)"
font-family="Helvetica" font-size="26" font-weight="400" font-style="normal" 
>
<text fill="#212121" fill-opacity="1" stroke="none" xml:space="preserve" x="0" y="0" font-family="Helvetica" font-size="26" font-weight="400" font-style="normal" 
 >20</text>
</g>

<g fill="#212121" fill-opacity="1" stroke="#212121" stroke-opacity="1" stroke-width="1" stroke-linecap="square" stroke-linejoin="bevel" transform="matrix(0.392109,0,0,0.388904,306.479,487.5)"
font-family="Helvetica" font-size="26" font-weight="400" font-style="normal" 
>
<text fill="#212121" fill-opacity="1" stroke="none" xml:space="preserve" x="0" y="0" font-family="Helvetica" font-size="26" font-weight="400" font-style="normal" 
 >25</text>
</g>

<g fill="#212121" fill-opacity="1" stroke="#212121" stroke-opacity="1" stroke-width="1" stroke-linecap="square" stroke-linejoin="bevel" transform="matrix(0.392109,0,0,0.388904,365.54,487.5)"
font-family="Helvetica" font-size="26" font-weight="400" font-style="normal" 
>
<text fill="#212121" fill-opacity="1" stroke="none" xml:space="preserve" x="0" y="0" font-family="Helvetica" font-size="26" font-weight="400" font-style="normal" 
 >30</text>
</g>

<g fill="#212121" fill-opacity="1" stroke="#212121" stroke-opacity="1" stroke-width="1" stroke-linecap="square" stroke-linejoin="bevel" transform="matrix(0.392109,0,0,0.388904,424.602,487.5)"
font-family="Helvetica" font-size="26" font-weight="400" font-style="normal" 
>
<text fill="#212121" fill-opacity="1" stroke="none" xml:space="preserve" x="0" y="0" font-family="Helvetica" font-size="26" font-weight="400" font-style="normal" 
 >35</text>
</g>

<g fill="#212121" fill-opacity="1" stroke="#212121" stroke-opacity="1" stroke-width="1" stroke-linecap="square" stroke-linejoin="bevel" transform="matrix(0.392109,0,0,0.388904,483.663,487.5)"
font-family="Helvetica" font-size="26" font-weight="400" font-style="normal" 
>
<text fill="#212121" fill-opacity="1" stroke="none" xml:space="preserve" x="0" y="0" font-family="Helvetica" font-size="26" font-weight="400" font-style="normal" 
 >40</text>
</g>

<g fill="#212121" fill-opacity="1" stroke="#212121" stroke-opacity="1" stroke-width="1.33333" stroke-linecap="square" stroke-linejoin="round" transform="matrix(0.392109,0,0,0.388904,-288.203,-37.7793)"
font-family="Helvetica" font-size="26" font-weight="400" font-style="normal" 
>
<polyline fill="none" vector-effect="none" points="777.5,1316 777.5,111 " />
<polyline fill="none" vector-effect="none" points="1982.5,1316 1982.5,111 " />
<polyline fill="none" vector-effect="none" points="777.5,1316 789.55,1316 " />
<polyline fill="none" vector-effect="none" points="1970.45,1316 1982.5,1316 " />
<polyline fill="none" vector-effect="none" points="777.5,1165.38 789.55,1165.38 " />
<polyline fill="none" vector-effect="none" points="1970.45,1165.38 1982.5,1165.38 " />
<polyline fill="none" vector-effect="none" points="777.5,1014.75 789.55,1014.75 " />
<polyline fill="none" vector-effect="none" points="1970.45,1014.75 1982.5,1014.75 " />
<polyline fill="none" vector-effect="none" points="777.5,864.125 789.55,864.125 " />
<polyline fill="none" vector-effect="none" points="1970.45,864.125 1982.5,864.125 " />
<polyline fill="none" vector-effect="none" points="777.5,713.5 789.55,713.5 " />
<polyline fill="none" vector-effect="none" points="1970.45,713.5 1982.5,713.5 " />
<polyline fill="none" vector-effect="none" points="777.5,562.875 789.55,562.875 " />
<polyline fill="none" vector-effect="none" points="1970.45,562.875 1982.5,562.875 " />
<polyline fill="none" vector-effect="none" points="777.5,412.25 789.55,412.25 " />
<polyline fill="none" vector-effect="none" points="1970.45,412.25 1982.5,412.25 " />
<polyline fill="none" vector-effect="none" points="777.5,261.625 789.55,261.625 " />
<polyline fill="none" vector-effect="none" points="1970.45,261.625 1982.5,261.625 " />
<polyline fill="none" vector-effect="none" points="777.5,111 789.55,111 " />
<polyline fill="none" vector-effect="none" points="1970.45,111 1982.5,111 " />
</g>

<g fill="#212121" fill-opacity="1" stroke="#212121" stroke-opacity="1" stroke-width="1" stroke-linecap="square" stroke-linejoin="bevel" transform="matrix(0.392109,0,0,0.388904,6.98952,477.518)"
font-family="Helvetica" font-size="26" font-weight="400" font-style="normal" 
>
<text fill="#212121" fill-opacity="1" stroke="none" xml:space="preserve" x="0" y="0" font-family="Helvetica" font-size="26" font-weight="400" font-style="normal" 
 >0</text>
</g>

<g fill="#212121" fill-opacity="1" stroke="#212121" stroke-opacity="1" stroke-width="1" stroke-linecap="square" stroke-linejoin="bevel" transform="matrix(0.392109,0,0,0.388904,6.98952,418.94)"
font-family="Helvetica" font-size="26" font-weight="400" font-style="normal" 
>
<text fill="#212121" fill-opacity="1" stroke="none" xml:space="preserve" x="0" y="0" font-family="Helvetica" font-size="26" font-weight="400" font-style="normal" 
 >5</text>
</g>

<g fill="#212121" fill-opacity="1" stroke="#212121" stroke-opacity="1" stroke-width="1" stroke-linecap="square" stroke-linejoin="bevel" transform="matrix(0.392109,0,0,0.388904,1.5,360.361)"
font-family="Helvetica" font-size="26" font-weight="400" font-style="normal" 
>
<text fill="#212121" fill-opacity="1" stroke="none" xml:space="preserve" x="0" y="0" font-family="Helvetica" font-size="26" font-weight="400" font-style="normal" 
 >10</text>
</g>

<g fill="#212121" fill-opacity="1" stroke="#212121" stroke-opacity="1" stroke-width="1" stroke-linecap="square" stroke-linejoin="bevel" transform="matrix(0.392109,0,0,0.388904,1.5,301.782)"
font-family="Helvetica" font-size="26" font-weight="400" font-style="normal" 
>
<text fill="#212121" fill-opacity="1" stroke="none" xml:space="preserve" x="0" y="0" font-family="Helvetica" font-size="26" font-weight="400" font-style="normal" 
 >15</text>
</g>

<g fill="#212121" fill-opacity="1" stroke="#212121" stroke-opacity="1" stroke-width="1" stroke-linecap="square" stroke-linejoin="bevel" transform="matrix(0.392109,0,0,0.388904,1.5,243.204)"
font-family="Helvetica" font-size="26" font-weight="400" font-style="normal" 
>
<text fill="#212121" fill-opacity="1" stroke="none" xml:space="preserve" x="0" y="0" font-family="Helvetica" font-size="26" font-weight="400" font-style="normal" 
 >20</text>
</g>

<g fill="#212121" fill-opacity="1" stroke="#212121" stroke-opacity="1" stroke-width="1" stroke-linecap="square" stroke-linejoin="bevel" transform="matrix(0.392109,0,0,0.388904,1.5,184.625)"
font-family="Helvetica" font-size="26" font-weight="400" font-style="normal" 
>
<text fill="#212121" fill-opacity="1" stroke="none" xml:space="preserve" x="0" y="0" font-family="Helvetica" font-size="26" font-weight="400" font-style="normal" 
 >25</text>
</g>

<g fill="#212121" fill-opacity="1" stroke="#212121" stroke-opacity="1" stroke-width="1" stroke-linecap="square" stroke-linejoin="bevel" transform="matrix(0.392109,0,0,0.388904,1.5,126.046)"
font-family="Helvetica" font-size="26" font-weight="400" font-style="normal" 
>
<text fill="#212121" fill-opacity="1" stroke="none" xml:space="preserve" x="0" y="0" font-family="Helvetica" font-size="26" font-weight="400" font-style="normal" 
 >30</text>
</g>

<g fill="#212121" fill-opacity="1" stroke="#212121" stroke-opacity="1" stroke-width="1" stroke-linecap="square" stroke-linejoin="bevel" transform="matrix(0.392109,0,0,0.388904,1.5,67.4678)"
font-family="Helvetica" font-size="26" font-weight="400" font-style="normal" 
>
<text fill="#212121" fill-opacity="1" stroke="none" xml:space="preserve" x="0" y="0" font-family="Helvetica" font-size="26" font-weight="400" font-style="normal" 
 >35</text>
</g>

<g fill="#212121" fill-opacity="1" stroke="#212121" stroke-opacity="1" stroke-width="1" stroke-linecap="square" stroke-linejoin="bevel" transform="matrix(0.392109,0,0,0.388904,1.5,8.88917)"
font-family="Helvetica" font-size="26" font-weight="400" font-style="normal" 
>
<text fill="#212121" fill-opacity="1" stroke="none" xml:space="preserve" x="0" y="0" font-family="Helvetica" font-size="26" font-weight="400" font-style="normal" 
 >40</text>
</g>

<g fill="none" stroke="#000000" stroke-opacity="1" stroke-width="3.46667" stroke-linecap="butt" stroke-linejoin="round" transform="matrix(0.392109,0,0,0.388904,-288.203,-37.7793)"
font-family="Helvetica" font-size="26" font-weight="400" font-style="normal" 
>
<polyline fill="none" vector-effect="none" points="1560.75,954.5 1560.74,952.693 1560.71,950.885 1560.67,949.078 1560.61,947.272 1560.52,945.466 1560.42,943.661 1560.31,941.858 1560.17,940.055 1560.02,938.254 1559.85,936.455 1559.66,934.658 1559.45,932.862 1559.22,931.069 1558.98,929.278 1558.72,927.489 1558.44,925.703 1558.14,923.92 1557.83,922.14 1557.5,920.364 1557.15,918.591 1556.78,916.821 1556.39,915.055 1555.99,913.293 1555.57,911.535 1555.13,909.782 1554.68,908.033 1554.2,906.288 1553.71,904.549 1553.2,902.814 1552.68,901.085 1552.13,899.361 1551.57,897.642 1551,895.929 1550.4,894.222 1549.79,892.521 1549.16,890.826 1548.52,889.138 1547.86,887.456 1547.18,885.781 1546.48,884.113 1545.77,882.451 1545.04,880.797 1544.3,879.151 1543.53,877.511 1542.76,875.88 1541.96,874.256 1541.15,872.641 1540.32,871.033 1539.48,869.434 1538.62,867.844 1537.75,866.262 1536.86,864.689 1535.95,863.125 1535.03,861.57 1534.09,860.024 1533.14,858.488 1532.17,856.961 1531.19,855.445 1530.19,853.938 1529.18,852.441 1528.15,850.954 1527.11,849.478 1526.05,848.012 1524.98,846.557 1523.89,845.113 1522.79,843.679 1521.68,842.257 1520.55,840.846 1519.4,839.446 1518.25,838.058 1517.07,836.681 1515.89,835.316 1514.69,833.963 1513.48,832.622 1512.25,831.294 1511.01,829.977 1509.76,828.674 1508.5,827.382 1507.22,826.104 1505.93,824.838 1504.63,823.585 1503.31,822.345 1501.98,821.119 1500.64,819.906 1499.29,818.706 1497.93,817.52 1496.55,816.348 1495.17,815.189 1493.77,814.044 1492.36,812.914 1490.93,811.797 1489.5,810.695 1488.06,809.607 1486.6,808.534 1485.14,807.475 1483.66,806.431 1482.18,805.402 1480.68,804.388 1479.18,803.388 1477.66,802.404 1476.13,801.435 1474.6,800.482 1473.05,799.543 1471.5,798.62 1469.94,797.713 1468.36,796.822 1466.78,795.946 1465.19,795.086 1463.59,794.242 1461.99,793.414 1460.37,792.602 1458.75,791.807 1457.12,791.027 1455.48,790.264 1453.83,789.518 1452.18,788.788 1450.52,788.074 1448.85,787.377 1447.18,786.697 1445.5,786.034 1443.81,785.387 1442.11,784.758 1440.41,784.145 1438.71,783.55 1436.99,782.971 1435.28,782.41 1433.55,781.865 1431.82,781.339 1430.09,780.829 1428.35,780.337 1426.61,779.862 1424.86,779.405 1423.1,778.965 1421.35,778.543 1419.59,778.138 1417.82,777.751 1416.05,777.382 1414.28,777.03 1412.5,776.696 1410.72,776.38 1408.94,776.082 1407.15,775.801 1405.36,775.539 1403.57,775.294 1401.78,775.067 1399.99,774.858 1398.19,774.667 1396.39,774.495 1394.59,774.34 1392.79,774.203 1390.98,774.084 1389.18,773.983 1387.37,773.9 1385.57,773.836 1383.76,773.789 1381.95,773.76 1380.14,773.75 1378.34,773.758 1376.53,773.783 1374.72,773.827 1372.92,773.889 1371.11,773.969 1369.31,774.067 1367.5,774.183 1365.7,774.317 1363.9,774.469 1362.1,774.639 1360.3,774.827 1358.5,775.033 1356.71,775.257 1354.92,775.498 1353.13,775.758 1351.35,776.036 1349.56,776.331 1347.78,776.645 1346.01,776.976 1344.23,777.324 1342.46,777.691 1340.7,778.075 1338.93,778.477 1337.18,778.896 1335.42,779.333 1333.67,779.788 1331.93,780.26 1330.19,780.75 1328.45,781.256 1326.72,781.78 1325,782.322 1323.28,782.88 1321.57,783.456 1319.86,784.049 1318.16,784.659 1316.46,785.286 1314.77,785.93 1313.09,786.591 1311.41,787.268 1309.75,787.962 1308.08,788.673 1306.43,789.401 1304.78,790.145 1303.14,790.905 1301.51,791.682 1299.89,792.475 1298.27,793.284 1296.66,794.109 1295.06,794.951 1293.47,795.808 1291.89,796.681 1290.31,797.57 1288.75,798.475 1287.19,799.395 1285.65,800.331 1284.11,801.282 1282.58,802.249 1281.07,803.231 1279.56,804.227 1278.06,805.239 1276.57,806.266 1275.1,807.308 1273.63,808.364 1272.17,809.435 1270.73,810.521 1269.29,811.621 1267.87,812.735 1266.46,813.863 1265.06,815.006 1263.67,816.162 1262.29,817.332 1260.92,818.516 1259.57,819.714 1258.23,820.925 1256.9,822.149 1255.58,823.387 1254.28,824.637 1252.98,825.901 1251.7,827.178 1250.44,828.467 1249.18,829.769 1247.94,831.083 1246.72,832.41 1245.5,833.749 1244.3,835.1 1243.11,836.463 1241.94,837.838 1240.78,839.224 1239.63,840.622 1238.5,842.031 1237.39,843.452 1236.28,844.884 1235.19,846.326 1234.12,847.78 1233.06,849.244 1232.01,850.718 1230.98,852.203 1229.97,853.699 1228.97,855.204 1227.98,856.719 1227.01,858.244 1226.06,859.779 1225.12,861.323 1224.19,862.877 1223.28,864.439 1222.39,866.011 1221.52,867.591 1220.65,869.18 1219.81,870.778 1218.98,872.384 1218.17,873.999 1217.37,875.621 1216.59,877.251 1215.82,878.889 1215.08,880.535 1214.35,882.187 1213.63,883.848 1212.93,885.515 1212.25,887.189 1211.59,888.87 1210.94,890.557 1210.31,892.251 1209.69,893.951 1209.1,895.657 1208.52,897.369 1207.95,899.087 1207.41,900.81 1206.88,902.538 1206.37,904.272 1205.88,906.011 1205.4,907.755 1204.94,909.503 1204.5,911.256 1204.08,913.013 1203.67,914.774 1203.28,916.539 1202.91,918.308 1202.56,920.081 1202.22,921.857 1201.9,923.637 1201.6,925.419 1201.32,927.204 1201.06,928.993 1200.81,930.783 1200.58,932.576 1200.37,934.371 1200.18,936.169 1200.01,937.968 1199.85,939.768 1199.71,941.571 1199.59,943.374 1199.49,945.179 1199.41,946.984 1199.34,948.791 1199.29,950.597 1199.26,952.405 1199.25,954.212 1199.26,956.02 1199.28,957.827 1199.32,959.634 1199.38,961.44 1199.46,963.246 1199.56,965.051 1199.67,966.855 1199.81,968.658 1199.96,970.459 1200.12,972.258 1200.31,974.056 1200.52,975.852 1200.74,977.646 1200.98,979.437 1201.24,981.226 1201.51,983.013 1201.81,984.796 1202.12,986.576 1202.45,988.354 1202.8,990.127 1203.16,991.898 1203.54,993.664 1203.94,995.427 1204.36,997.185 1204.8,998.939 1205.25,1000.69 1205.72,1002.43 1206.21,1004.17 1206.72,1005.91 1207.24,1007.64 1207.78,1009.37 1208.34,1011.08 1208.91,1012.8 1209.5,1014.51 1210.11,1016.21 1210.74,1017.9 1211.38,1019.59 1212.04,1021.28 1212.71,1022.95 1213.41,1024.62 1214.12,1026.28 1214.84,1027.94 1215.58,1029.59 1216.34,1031.23 1217.12,1032.86 1217.91,1034.49 1218.72,1036.1 1219.54,1037.71 1220.38,1039.31 1221.24,1040.9 1222.11,1042.49 1223,1044.06 1223.9,1045.63 1224.82,1047.18 1225.76,1048.73 1226.71,1050.27 1227.67,1051.8 1228.65,1053.31 1229.65,1054.82 1230.66,1056.32 1231.68,1057.81 1232.72,1059.29 1233.78,1060.76 1234.85,1062.21 1235.93,1063.66 1237.03,1065.09 1238.15,1066.52 1239.27,1067.93 1240.41,1069.33 1241.57,1070.72 1242.74,1072.1 1243.92,1073.47 1245.12,1074.82 1246.33,1076.16 1247.55,1077.5 1248.79,1078.81 1250.04,1080.12 1251.3,1081.41 1252.58,1082.69 1253.86,1083.96 1255.16,1085.22 1256.48,1086.46 1257.8,1087.69 1259.14,1088.9 1260.49,1090.1 1261.85,1091.29 1263.23,1092.47 1264.61,1093.63 1266.01,1094.77 1267.42,1095.91 1268.84,1097.03 1270.27,1098.13 1271.71,1099.22 1273.16,1100.3 1274.63,1101.36 1276.1,1102.4 1277.58,1103.44 1279.08,1104.45 1280.58,1105.45 1282.1,1106.44 1283.62,1107.41 1285.16,1108.37 1286.7,1109.31 1288.25,1110.23 1289.81,1111.14 1291.39,1112.04 1292.97,1112.92 1294.55,1113.78 1296.15,1114.62 1297.76,1115.45 1299.37,1116.27 1300.99,1117.07 1302.62,1117.85 1304.26,1118.62 1305.9,1119.36 1307.56,1120.1 1309.22,1120.81 1310.88,1121.51 1312.56,1122.2 1314.24,1122.86 1315.92,1123.51 1317.62,1124.14 1319.32,1124.76 1321.02,1125.36 1322.73,1125.94 1324.45,1126.5 1326.17,1127.05 1327.9,1127.58 1329.63,1128.09 1331.37,1128.59 1333.12,1129.06 1334.86,1129.52 1336.62,1129.97 1338.37,1130.39 1340.13,1130.8 1341.9,1131.19 1343.67,1131.56 1345.44,1131.92 1347.22,1132.25 1348.99,1132.57 1350.78,1132.87 1352.56,1133.16 1354.35,1133.42 1356.14,1133.67 1357.93,1133.9 1359.73,1134.11 1361.53,1134.3 1363.32,1134.48 1365.13,1134.64 1366.93,1134.78 1368.73,1134.9 1370.54,1135 1372.34,1135.09 1374.15,1135.16 1375.95,1135.2 1377.76,1135.24 1379.57,1135.25 1381.38,1135.24 1383.18,1135.22 1384.99,1135.18 1386.8,1135.12 1388.6,1135.05 1390.41,1134.95 1392.21,1134.84 1394.01,1134.71 1395.82,1134.56 1397.62,1134.39 1399.41,1134.2 1401.21,1134 1403,1133.78 1404.79,1133.54 1406.58,1133.28 1408.37,1133.01 1410.15,1132.72 1411.93,1132.41 1413.71,1132.08 1415.49,1131.73 1417.26,1131.37 1419.02,1130.99 1420.79,1130.59 1422.55,1130.17 1424.3,1129.74 1426.05,1129.29 1427.8,1128.82 1429.54,1128.33 1431.27,1127.83 1433,1127.3 1434.73,1126.77 1436.45,1126.21 1438.16,1125.64 1439.87,1125.05 1441.57,1124.44 1443.27,1123.81 1444.96,1123.17 1446.64,1122.52 1448.32,1121.84 1449.99,1121.15 1451.65,1120.44 1453.31,1119.72 1454.96,1118.98 1456.6,1118.22 1458.23,1117.44 1459.86,1116.65 1461.47,1115.85 1463.08,1115.02 1464.68,1114.18 1466.28,1113.33 1467.86,1112.46 1469.44,1111.57 1471,1110.67 1472.56,1109.75 1474.11,1108.82 1475.65,1107.87 1477.17,1106.91 1478.69,1105.93 1480.2,1104.93 1481.7,1103.92 1483.19,1102.9 1484.67,1101.86 1486.14,1100.8 1487.6,1099.74 1489.04,1098.65 1490.48,1097.56 1491.9,1096.44 1493.32,1095.32 1494.72,1094.18 1496.11,1093.02 1497.49,1091.85 1498.86,1090.67 1500.21,1089.48 1501.56,1088.27 1502.89,1087.05 1504.21,1085.81 1505.52,1084.56 1506.81,1083.3 1508.09,1082.03 1509.36,1080.74 1510.62,1079.44 1511.86,1078.13 1513.09,1076.8 1514.31,1075.47 1515.51,1074.12 1516.7,1072.76 1517.87,1071.38 1519.04,1070 1520.18,1068.6 1521.32,1067.19 1522.44,1065.78 1523.54,1064.35 1524.63,1062.9 1525.71,1061.45 1526.77,1059.99 1527.82,1058.52 1528.85,1057.03 1529.87,1055.54 1530.87,1054.04 1531.86,1052.52 1532.83,1051 1533.79,1049.47 1534.73,1047.92 1535.66,1046.37 1536.57,1044.81 1537.47,1043.24 1538.35,1041.66 1539.21,1040.07 1540.06,1038.48 1540.89,1036.87 1541.71,1035.26 1542.5,1033.64 1543.29,1032.01 1544.05,1030.37 1544.81,1028.73 1545.54,1027.08 1546.26,1025.42 1546.96,1023.75 1547.64,1022.08 1548.31,1020.4 1548.96,1018.71 1549.59,1017.02 1550.21,1015.32 1550.81,1013.62 1551.39,1011.9 1551.96,1010.19 1552.51,1008.47 1553.04,1006.74 1553.55,1005 1554.05,1003.27 1554.53,1001.52 1554.99,999.776 1555.43,998.024 1555.86,996.267 1556.27,994.507 1556.66,992.742 1557.03,990.974 1557.39,989.201 1557.73,987.426 1558.05,985.647 1558.35,983.865 1558.63,982.08 1558.9,980.292 1559.15,978.502 1559.38,976.709 1559.59,974.915 1559.79,973.118 1559.97,971.319 1560.13,969.518 1560.27,967.716 1560.39,965.913 1560.49,964.109 1560.58,962.303 1560.65,960.497 1560.7,958.69 1560.73,956.883 1560.75,955.076 " />
<polyline fill="none" vector-effect="none" points="1199.25,593 1199.24,591.193 1199.21,589.385 1199.17,587.578 1199.11,585.772 1199.02,583.966 1198.92,582.162 1198.81,580.358 1198.67,578.555 1198.52,576.754 1198.35,574.955 1198.16,573.158 1197.95,571.362 1197.72,569.569 1197.48,567.778 1197.22,565.989 1196.94,564.203 1196.64,562.42 1196.33,560.64 1196,558.864 1195.65,557.091 1195.28,555.321 1194.89,553.555 1194.49,551.793 1194.07,550.035 1193.63,548.282 1193.18,546.533 1192.7,544.788 1192.21,543.049 1191.7,541.314 1191.18,539.585 1190.63,537.861 1190.07,536.142 1189.5,534.429 1188.9,532.722 1188.29,531.021 1187.66,529.326 1187.02,527.638 1186.36,525.956 1185.68,524.281 1184.98,522.613 1184.27,520.951 1183.54,519.297 1182.8,517.651 1182.03,516.011 1181.26,514.38 1180.46,512.756 1179.65,511.141 1178.82,509.533 1177.98,507.934 1177.12,506.344 1176.25,504.762 1175.36,503.189 1174.45,501.625 1173.53,500.07 1172.59,498.524 1171.64,496.988 1170.67,495.461 1169.69,493.945 1168.69,492.438 1167.68,490.941 1166.65,489.454 1165.61,487.978 1164.55,486.512 1163.48,485.057 1162.39,483.613 1161.29,482.179 1160.18,480.757 1159.05,479.346 1157.9,477.946 1156.75,476.558 1155.57,475.181 1154.39,473.816 1153.19,472.463 1151.98,471.122 1150.75,469.794 1149.51,468.477 1148.26,467.174 1147,465.882 1145.72,464.604 1144.43,463.338 1143.13,462.085 1141.81,460.845 1140.48,459.619 1139.14,458.406 1137.79,457.206 1136.43,456.02 1135.05,454.848 1133.67,453.689 1132.27,452.544 1130.86,451.414 1129.43,450.297 1128,449.195 1126.56,448.107 1125.1,447.034 1123.64,445.975 1122.16,444.931 1120.68,443.902 1119.18,442.888 1117.68,441.888 1116.16,440.904 1114.63,439.935 1113.1,438.981 1111.55,438.043 1110,437.12 1108.44,436.213 1106.86,435.322 1105.28,434.446 1103.69,433.586 1102.09,432.742 1100.49,431.914 1098.87,431.102 1097.25,430.307 1095.62,429.527 1093.98,428.764 1092.33,428.018 1090.68,427.288 1089.02,426.574 1087.35,425.877 1085.68,425.197 1084,424.534 1082.31,423.887 1080.61,423.258 1078.91,422.645 1077.21,422.05 1075.49,421.471 1073.78,420.91 1072.05,420.365 1070.32,419.839 1068.59,419.329 1066.85,418.837 1065.11,418.362 1063.36,417.905 1061.6,417.465 1059.85,417.043 1058.09,416.638 1056.32,416.251 1054.55,415.882 1052.78,415.53 1051,415.196 1049.22,414.88 1047.44,414.582 1045.65,414.301 1043.86,414.039 1042.07,413.794 1040.28,413.567 1038.49,413.358 1036.69,413.167 1034.89,412.995 1033.09,412.84 1031.29,412.703 1029.48,412.584 1027.68,412.483 1025.87,412.4 1024.07,412.336 1022.26,412.289 1020.45,412.261 1018.64,412.25 1016.84,412.258 1015.03,412.283 1013.22,412.327 1011.42,412.389 1009.61,412.469 1007.81,412.567 1006,412.683 1004.2,412.817 1002.4,412.969 1000.6,413.139 998.801,413.327 997.005,413.533 995.211,413.757 993.42,413.998 991.631,414.258 989.845,414.536 988.062,414.831 986.282,415.145 984.505,415.476 982.732,415.824 980.962,416.191 979.195,416.575 977.433,416.977 975.675,417.396 973.921,417.833 972.172,418.288 970.427,418.76 968.687,419.25 966.952,419.756 965.222,420.28 963.498,420.822 961.779,421.38 960.065,421.956 958.358,422.549 956.656,423.159 954.961,423.786 953.272,424.43 951.59,425.091 949.914,425.768 948.245,426.462 946.583,427.173 944.929,427.901 943.281,428.645 941.642,429.405 940.01,430.182 938.385,430.975 936.769,431.784 935.161,432.609 933.561,433.451 931.97,434.308 930.388,435.181 928.814,436.07 927.249,436.975 925.693,437.895 924.147,438.831 922.61,439.782 921.083,440.749 919.565,441.731 918.057,442.727 916.56,443.739 915.072,444.766 913.595,445.808 912.128,446.864 910.672,447.935 909.227,449.021 907.793,450.121 906.37,451.235 904.958,452.363 903.557,453.506 902.168,454.662 900.79,455.832 899.424,457.016 898.071,458.214 896.729,459.425 895.399,460.649 894.082,461.887 892.777,463.137 891.485,464.401 890.205,465.678 888.938,466.967 887.684,468.269 886.444,469.583 885.216,470.91 884.002,472.249 882.801,473.6 881.614,474.963 880.44,476.338 879.281,477.724 878.135,479.122 877.003,480.531 875.886,481.952 874.782,483.384 873.693,484.826 872.619,486.28 871.559,487.744 870.514,489.218 869.483,490.703 868.468,492.199 867.467,493.704 866.482,495.219 865.512,496.744 864.557,498.279 863.617,499.823 862.693,501.377 861.785,502.939 860.892,504.511 860.015,506.091 859.154,507.68 858.309,509.278 857.48,510.884 856.667,512.499 855.87,514.121 855.089,515.751 854.325,517.389 853.577,519.035 852.845,520.687 852.131,522.348 851.432,524.015 850.751,525.689 850.086,527.37 849.438,529.057 848.807,530.751 848.193,532.451 847.596,534.157 847.016,535.869 846.454,537.587 845.908,539.31 845.38,541.038 844.869,542.772 844.375,544.511 843.899,546.255 843.441,548.003 842.999,549.756 842.576,551.513 842.17,553.274 841.781,555.039 841.41,556.808 841.057,558.581 840.722,560.357 840.404,562.137 840.105,563.919 839.823,565.704 839.559,567.493 839.313,569.283 839.085,571.076 838.874,572.871 838.682,574.669 838.508,576.468 838.351,578.268 838.213,580.071 838.093,581.874 837.99,583.679 837.906,585.484 837.84,587.291 837.792,589.097 837.762,590.905 837.75,592.712 837.756,594.52 837.781,596.327 837.823,598.134 837.883,599.94 837.962,601.746 838.058,603.551 838.173,605.355 838.305,607.158 838.456,608.959 838.625,610.758 838.811,612.556 839.016,614.352 839.238,616.146 839.479,617.937 839.737,619.726 840.013,621.513 840.307,623.296 840.619,625.076 840.949,626.854 841.296,628.627 841.661,630.398 842.044,632.164 842.444,633.927 842.862,635.685 843.298,637.439 843.751,639.189 844.222,640.934 844.71,642.675 845.215,644.41 845.738,646.14 846.278,647.865 846.835,649.585 847.41,651.298 848.001,653.006 848.61,654.708 849.235,656.404 849.878,658.094 850.537,659.776 851.213,661.453 851.906,663.122 852.616,664.785 853.342,666.44 854.085,668.088 854.844,669.728 855.619,671.361 856.411,672.986 857.219,674.602 858.043,676.211 858.883,677.812 859.739,679.403 860.611,680.987 861.499,682.561 862.402,684.127 863.321,685.683 864.256,687.23 865.206,688.768 866.171,690.296 867.152,691.814 868.148,693.323 869.158,694.821 870.184,696.31 871.224,697.788 872.28,699.255 873.349,700.712 874.434,702.158 875.533,703.593 876.646,705.017 877.773,706.43 878.914,707.832 880.07,709.222 881.239,710.601 882.421,711.967 883.618,713.322 884.828,714.665 886.051,715.995 887.288,717.314 888.537,718.62 889.8,719.913 891.076,721.194 892.364,722.461 893.665,723.716 894.978,724.958 896.304,726.187 897.642,727.402 898.992,728.604 900.354,729.792 901.728,730.967 903.113,732.128 904.51,733.274 905.919,734.407 907.338,735.526 908.769,736.63 910.211,737.721 911.663,738.796 913.127,739.857 914.601,740.904 916.085,741.935 917.579,742.952 919.084,743.954 920.598,744.94 922.122,745.912 923.656,746.868 925.2,747.808 926.753,748.734 928.314,749.643 929.885,750.537 931.465,751.416 933.054,752.278 934.651,753.124 936.256,753.955 937.87,754.769 939.491,755.568 941.121,756.349 942.758,757.115 944.403,757.864 946.056,758.597 947.715,759.313 949.382,760.013 951.055,760.695 952.736,761.362 954.422,762.011 956.116,762.643 957.815,763.258 959.521,763.857 961.232,764.438 962.95,765.002 964.672,765.549 966.401,766.079 968.134,766.591 969.872,767.086 971.616,767.563 973.363,768.024 975.116,768.466 976.873,768.891 978.634,769.299 980.399,769.689 982.167,770.061 983.94,770.415 985.716,770.752 987.495,771.071 989.277,771.372 991.062,771.655 992.85,771.921 994.641,772.168 996.433,772.398 998.228,772.61 1000.03,772.803 1001.82,772.979 1003.63,773.137 1005.43,773.277 1007.23,773.398 1009.04,773.502 1010.84,773.588 1012.65,773.655 1014.45,773.705 1016.26,773.736 1018.07,773.75 1019.88,773.745 1021.68,773.722 1023.49,773.681 1025.3,773.622 1027.1,773.545 1028.91,773.45 1030.71,773.337 1032.51,773.206 1034.32,773.057 1036.12,772.89 1037.91,772.704 1039.71,772.501 1041.5,772.28 1043.29,772.041 1045.08,771.784 1046.87,771.51 1048.65,771.217 1050.43,770.907 1052.21,770.578 1053.99,770.232 1055.76,769.869 1057.52,769.487 1059.29,769.088 1061.05,768.672 1062.8,768.237 1064.55,767.785 1066.3,767.316 1068.04,766.83 1069.77,766.326 1071.5,765.804 1073.23,765.266 1074.95,764.71 1076.66,764.137 1078.37,763.546 1080.07,762.939 1081.77,762.315 1083.46,761.674 1085.14,761.016 1086.82,760.341 1088.49,759.649 1090.15,758.941 1091.81,758.216 1093.46,757.475 1095.1,756.717 1096.73,755.943 1098.36,755.153 1099.97,754.346 1101.58,753.523 1103.18,752.684 1104.78,751.83 1106.36,750.959 1107.94,750.072 1109.5,749.17 1111.06,748.252 1112.61,747.319 1114.15,746.37 1115.67,745.406 1117.19,744.427 1118.7,743.432 1120.2,742.423 1121.69,741.398 1123.17,740.359 1124.64,739.305 1126.1,738.236 1127.54,737.153 1128.98,736.055 1130.4,734.943 1131.82,733.817 1133.22,732.677 1134.61,731.523 1135.99,730.355 1137.36,729.173 1138.71,727.978 1140.06,726.769 1141.39,725.547 1142.71,724.311 1144.02,723.063 1145.31,721.801 1146.59,720.526 1147.86,719.239 1149.12,717.939 1150.36,716.627 1151.59,715.302 1152.81,713.965 1154.01,712.616 1155.2,711.255 1156.37,709.882 1157.54,708.498 1158.68,707.101 1159.82,705.694 1160.94,704.275 1162.04,702.845 1163.13,701.404 1164.21,699.953 1165.27,698.49 1166.32,697.017 1167.35,695.534 1168.37,694.04 1169.37,692.536 1170.36,691.023 1171.33,689.499 1172.29,687.966 1173.23,686.423 1174.16,684.871 1175.07,683.31 1175.97,681.74 1176.85,680.161 1177.71,678.573 1178.56,676.977 1179.39,675.372 1180.21,673.759 1181,672.138 1181.79,670.509 1182.55,668.872 1183.31,667.228 1184.04,665.576 1184.76,663.917 1185.46,662.251 1186.14,660.578 1186.81,658.898 1187.46,657.212 1188.09,655.519 1188.71,653.82 1189.31,652.115 1189.89,650.404 1190.46,648.687 1191.01,646.965 1191.54,645.237 1192.05,643.504 1192.55,641.766 1193.03,640.023 1193.49,638.276 1193.93,636.524 1194.36,634.767 1194.77,633.007 1195.16,631.242 1195.53,629.474 1195.89,627.701 1196.23,625.926 1196.55,624.147 1196.85,622.365 1197.13,620.58 1197.4,618.792 1197.65,617.002 1197.88,615.209 1198.09,613.415 1198.29,611.618 1198.47,609.819 1198.63,608.018 1198.77,606.216 1198.89,604.413 1198.99,602.609 1199.08,600.803 1199.15,598.997 1199.2,597.19 1199.23,595.383 1199.25,593.576 " />
</g>

<g fill="#000000" fill-opacity="1" stroke="#000000" stroke-opacity="1" stroke-width="1.33333" stroke-linecap="butt" stroke-linejoin="miter" stroke-miterlimit="2" transform="matrix(0.392109,0,0,0.388904,-288.203,-37.7793)"
font-family="Helvetica" font-size="26" font-weight="400" font-style="normal" 
>
<polyline fill="none" vector-effect="none" points="1862,223.5 1862,239.5 " />
<polyline fill="none" vector-effect="none" points="1854,231.5 1870,231.5 " />
<polyline fill="none" vector-effect="none" points="1856.34,225.843 1867.66,237.157 " />
<polyline fill="none" vector-effect="none" points="1856.34,237.157 1867.66,225.843 " />
</g>

<g fill="none" stroke="#0072bd" stroke-opacity="1" stroke-width="3.73333" stroke-linecap="butt" stroke-linejoin="round" transform="matrix(0.392109,0,0,0.388904,-288.203,-37.7793)"
font-family="Helvetica" font-size="26" font-weight="400" font-style="normal" 
>
<polyline fill="none" vector-effect="none" points="867.875,1225.63 868.301,1225.2 869.154,1224.35 870.434,1223.07 872.138,1221.37 874.268,1219.24 876.396,1217.1 878.523,1214.97 880.653,1212.84 882.783,1210.71 884.916,1208.58 887.049,1206.46 889.18,1204.33 891.31,1202.2 893.437,1200.06 895.564,1197.93 897.694,1195.8 899.824,1193.67 901.958,1191.54 904.091,1189.42 906.221,1187.29 908.351,1185.16 910.478,1183.02 912.605,1180.89 914.735,1178.76 916.866,1176.63 918.999,1174.5 921.132,1172.37 923.262,1170.24 925.392,1168.11 927.519,1165.98 929.647,1163.85 931.777,1161.72 933.907,1159.59 936.04,1157.46 938.173,1155.33 940.303,1153.2 942.434,1151.07 944.561,1148.94 946.688,1146.81 948.818,1144.68 950.948,1142.55 953.081,1140.42 955.214,1138.29 957.345,1136.16 959.475,1134.03 961.602,1131.9 963.729,1129.76 965.853,1127.63 967.978,1125.49 970.099,1123.35 972.22,1121.21 974.338,1119.07 976.456,1116.93 978.572,1114.79 980.687,1112.64 982.799,1110.49 984.911,1108.34 987.021,1106.19 989.13,1104.04 991.236,1101.89 993.342,1099.74 995.446,1097.58 997.549,1095.42 999.649,1093.26 1001.75,1091.1 1003.85,1088.94 1005.94,1086.78 1008.04,1084.61 1010.13,1082.45 1012.22,1080.28 1014.31,1078.11 1016.41,1075.94 1018.5,1073.78 1020.59,1071.61 1022.68,1069.44 1024.77,1067.27 1026.86,1065.1 1028.95,1062.92 1031.03,1060.75 1033.11,1058.57 1035.2,1056.4 1037.25,1054.19 1039.25,1051.94 1041.16,1049.61 1043.01,1047.23 1044.78,1044.79 1046.48,1042.3 1048.08,1039.76 1049.62,1037.17 1051.06,1034.52 1052.44,1031.84 1053.71,1029.11 1054.92,1026.35 1056.02,1023.55 1057.04,1020.71 1057.96,1017.85 1058.81,1014.95 1059.55,1012.03 1060.22,1009.1 1060.85,1006.15 1061.4,1003.19 1061.92,1000.22 1062.36,997.241 1062.76,994.256 1063.09,991.262 1063.39,988.263 1063.6,985.259 1063.78,982.251 1063.91,979.242 1064.02,976.231 1064.09,973.22 1064.14,970.208 1064.17,967.195 1064.19,964.183 1064.22,961.17 1064.28,958.158 1064.36,955.147 1064.5,952.138 1064.68,949.131 1064.92,946.128 1065.24,943.132 1065.62,940.144 1066.08,937.167 1066.62,934.202 1067.23,931.253 1067.92,928.32 1068.69,925.408 1069.54,922.518 1070.47,919.652 1071.47,916.812 1072.55,913.998 1073.69,911.211 1074.9,908.453 1076.18,905.724 1077.52,903.025 1078.92,900.358 1080.38,897.723 1081.89,895.12 1083.46,892.546 1085.08,890.006 1086.75,887.498 1088.46,885.021 1090.22,882.572 1092.01,880.151 1093.84,877.756 1095.7,875.388 1097.6,873.047 1099.52,870.73 1101.47,868.434 1103.45,866.164 1105.46,863.915 1107.48,861.686 1109.53,859.474 1111.59,857.283 1113.68,855.108 1115.78,852.949 1117.89,850.801 1120.02,848.668 1122.16,846.547 1124.31,844.434 1126.47,842.334 1128.63,840.243 1130.81,838.158 1132.99,836.082 1135.18,834.012 1137.37,831.945 1139.57,829.885 1141.77,827.827 1143.97,825.769 1146.17,823.715 1148.38,821.66 1150.58,819.609 1152.79,817.557 1155,815.509 1157.21,813.461 1159.41,811.409 1161.62,809.358 1163.82,807.303 1166.03,805.249 1168.23,803.191 1170.43,801.134 1172.62,799.073 1174.82,797.012 1177.02,794.949 1179.2,792.879 1181.39,790.806 1183.58,788.733 1185.76,786.657 1187.94,784.575 1190.11,782.49 1192.28,780.405 1194.46,778.317 1196.63,776.229 1198.8,774.137 1200.96,772.046 1203.13,769.952 1205.3,767.858 1207.46,765.761 1209.62,763.664 1211.78,761.563 1213.94,759.463 1216.1,757.36 1218.25,755.257 1220.41,753.15 1222.56,751.044 1224.71,748.935 1226.86,746.826 1229.01,744.713 1231.16,742.601 1233.3,740.486 1235.45,738.371 1237.59,736.253 1239.73,734.134 1241.87,732.013 1244.01,729.892 1246.15,727.768 1248.28,725.643 1250.42,723.516 1252.55,721.389 1254.68,719.259 1256.81,717.129 1258.94,714.996 1261.06,712.862 1263.19,710.726 1265.31,708.59 1267.43,706.451 1269.56,704.312 1271.68,702.176 1273.8,700.04 1275.93,697.907 1278.06,695.774 1280.19,693.644 1282.32,691.513 1284.45,689.38 1286.57,687.247 1288.7,685.117 1290.83,682.987 1292.97,680.86 1295.1,678.732 1297.23,676.602 1299.36,674.472 1301.49,672.345 1303.63,670.218 1305.76,668.094 1307.9,665.969 1310.03,663.842 1312.16,661.715 1314.3,659.591 1316.44,657.467 1318.58,655.345 1320.72,653.23 1322.87,651.124 1325.03,649.024 1327.2,646.932 1329.38,644.854 1331.57,642.784 1333.77,640.72 1335.97,638.665 1338.18,636.617 1340.4,634.578 1342.62,632.545 1344.85,630.521 1347.09,628.504 1349.33,626.496 1351.58,624.495 1353.84,622.496 1356.1,620.504 1358.36,618.515 1360.63,616.532 1362.9,614.553 1365.18,612.579 1367.46,610.609 1369.74,608.646 1372.03,606.685 1374.32,604.731 1376.62,602.78 1378.92,600.836 1381.22,598.895 1383.53,596.96 1385.84,595.028 1388.16,593.103 1390.48,591.181 1392.8,589.26 1395.12,587.341 1397.44,585.422 1399.77,583.507 1402.09,581.592 1404.42,579.679 1406.75,577.767 1409.08,575.858 1411.41,573.95 1413.74,572.044 1416.08,570.138 1418.41,568.236 1420.75,566.334 1423.09,564.435 1425.43,562.535 1427.77,560.64 1430.11,558.744 1432.45,556.851 1434.8,554.959 1437.14,553.069 1439.49,551.18 1441.84,549.294 1444.19,547.408 1446.54,545.525 1448.89,543.643 1451.24,541.763 1453.6,539.884 1455.96,538.008 1458.31,536.131 1460.67,534.259 1463.03,532.386 1465.39,530.516 1467.76,528.647 1470.12,526.78 1472.49,524.914 1474.85,523.051 1477.22,521.188 1479.59,519.329 1481.96,517.469 1484.33,515.613 1486.71,513.756 1489.08,511.903 1491.46,510.05 1493.83,508.2 1496.21,506.351 1498.59,504.504 1500.97,502.658 1503.35,500.815 1505.74,498.972 1508.12,497.132 1510.51,495.292 1512.9,493.456 1515.28,491.62 1517.68,489.787 1520.07,487.954 1522.46,486.124 1524.85,484.294 1527.25,482.468 1529.64,480.641 1532.04,478.818 1534.44,476.995 1536.84,475.176 1539.24,473.356 1541.65,471.54 1544.05,469.723 1546.45,467.91 1548.86,466.097 1551.27,464.288 1553.68,462.478 1556.09,460.672 1558.5,458.866 1560.91,457.063 1563.33,455.26 1565.74,453.46 1568.16,451.661 1570.58,449.865 1572.99,448.069 1575.42,446.276 1577.84,444.483 1580.26,442.694 1582.68,440.904 1585.11,439.118 1587.54,437.332 1589.96,435.55 1592.39,433.767 1594.82,431.988 1597.25,430.209 1599.69,428.433 1602.12,426.657 1604.55,424.878 1606.98,423.099 1609.41,421.316 1611.84,419.534 1614.27,417.754 1616.7,415.975 1619.13,414.193 1621.56,412.41 1623.99,410.631 1626.42,408.852 1628.85,407.069 1631.28,405.286 1633.71,403.507 1636.14,401.728 1638.57,399.945 1641,398.163 1643.43,396.384 1645.86,394.604 1648.29,392.822 1650.72,391.039 1653.15,389.26 1655.58,387.481 1658.01,385.698 1660.43,383.916 1662.86,382.13 1665.29,380.344 1667.72,378.561 1670.14,376.779 1672.57,374.993 1675,373.207 1677.42,371.424 1679.85,369.641 1682.28,367.855 1684.7,366.069 1687.13,364.28 1689.55,362.491 1691.98,360.705 1694.4,358.919 1696.83,357.129 1699.25,355.34 1701.68,353.554 1704.1,351.768 1706.53,349.979 1708.95,348.189 1711.37,346.397 1713.79,344.604 1716.22,342.815 1718.64,341.025 1721.06,339.232 1723.48,337.44 1725.9,335.644 1728.32,333.847 1730.74,332.055 1733.16,330.262 1735.58,328.466 1738,326.67 1740.41,324.87 1742.83,323.071 1745.25,321.274 1747.67,319.478 1750.08,317.679 1752.5,315.879 1754.91,314.076 1757.32,312.274 1759.74,310.467 1762.15,308.661 1764.55,306.851 1766.96,305.042 1769.37,303.236 1771.79,301.429 1774.19,299.62 1776.6,297.81 1779.01,295.997 1781.41,294.184 1783.82,292.368 1786.22,290.552 1788.62,288.732 1791.02,286.912 1793.42,285.089 1795.82,283.266 1798.21,281.44 1800.61,279.613 1803,277.784 1805.4,275.954 1807.79,274.121 1810.18,272.288 1812.57,270.451 1814.95,268.615 1817.07,266.98 1819.21,265.331 1821.11,263.861 1823.07,262.35 1824.84,260.972 1826.57,259.635 1828.13,258.418 1829.75,257.161 1831.2,256.024 1832.61,254.929 1833.96,253.874 1835.25,252.859 1836.5,251.884 1837.69,250.951 1838.82,250.057 1839.9,249.204 1840.93,248.392 1841.91,247.62 1842.84,246.89 1843.71,246.2 1844.52,245.551 1845.29,244.944 1846.11,244.294 1846.87,243.685 1847.58,243.118 1848.24,242.592 1848.85,242.107 1849.4,241.664 1850,241.178 1850.56,240.734 1851.06,240.331 1851.51,239.97 1852.01,239.559 1852.47,239.19 1852.88,238.859 1853.28,238.543 1853.66,238.235 1854.04,237.929 1854.41,237.626 1854.69,237.399 1855.03,237.129 1855.3,236.913 1855.62,236.65 1855.89,236.436 1856.13,236.238 1856.37,236.046 1856.61,235.856 1856.84,235.667 1857.08,235.478 1857.31,235.288 1857.47,235.162 1857.67,234.993 1857.83,234.872 1857.96,234.761 1858.1,234.652 1858.23,234.544 1858.37,234.436 1858.5,234.328 1858.63,234.22 1858.77,234.111 1858.9,234.003 1859.04,233.895 1859.17,233.787 1859.3,233.678 1859.44,233.57 1859.5,233.516 1859.62,233.42 " />
</g>

<g fill="none" stroke="#d95319" stroke-opacity="1" stroke-width="3.73333" stroke-linecap="butt" stroke-linejoin="round" transform="matrix(0.392109,0,0,0.388904,-288.203,-37.7793)"
font-family="Helvetica" font-size="26" font-weight="400" font-style="normal" 
>
<polyline fill="none" vector-effect="none" points="782.669,1225.63 783.095,1225.08 783.948,1224.23 785.228,1223.07 786.932,1221.37 789.062,1219.36 791.189,1217.22 793.316,1214.97 795.447,1212.84 797.577,1210.59 799.71,1208.46 801.843,1206.46 803.973,1204.33 806.103,1202.32 808.231,1200.18 810.358,1197.93 812.488,1195.8 814.618,1193.55 816.751,1191.42 818.884,1189.42 821.014,1187.29 823.145,1185.27 825.272,1183.14 827.399,1180.89 829.529,1178.76 831.659,1176.51 833.793,1174.38 835.926,1172.37 838.056,1170.24 840.186,1168.23 842.313,1166.1 844.44,1163.85 846.57,1161.72 848.701,1159.47 850.834,1157.34 852.967,1155.33 855.097,1153.2 857.227,1151.19 859.354,1149.06 861.482,1146.81 863.612,1144.68 865.742,1142.43 867.875,1140.3 870.008,1138.29 872.138,1136.16 874.268,1134.15 876.396,1132.02 878.523,1130 880.647,1127.87 882.772,1125.85 884.893,1123.71 887.015,1121.69 889.133,1119.55 891.252,1117.53 893.367,1115.38 895.484,1113.35 897.596,1111.21 899.709,1109.18 901.818,1107.03 903.929,1104.99 906.035,1102.84 908.143,1100.81 910.246,1098.65 912.351,1096.61 914.451,1094.45 916.553,1092.41 918.65,1090.25 920.749,1088.2 922.843,1086.04 924.94,1083.99 927.031,1081.82 929.12,1079.54 931.214,1077.37 933.31,1075.32 935.401,1073.16 937.495,1071.11 939.583,1068.94 941.673,1066.88 943.758,1064.71 945.846,1062.65 947.928,1060.48 950.041,1059.37 952.197,1059.3 954.449,1060.25 956.596,1060.05 958.903,1060.86 961.034,1060.52 963.387,1061.18 965.493,1060.71 967.882,1061.22 969.955,1060.63 972.371,1060.98 974.402,1060.26 976.836,1060.46 978.818,1059.61 981.26,1059.66 983.184,1058.69 985.625,1058.58 987.483,1057.49 988.725,1055.45 990.541,1054.29 991.706,1052.21 993.477,1050.98 994.562,1048.85 996.285,1047.55 997.289,1045.39 998.962,1044.03 999.885,1041.83 1001.02,1039.88 1001.39,1037.13 1002.48,1035.16 1002.8,1032.41 1003.35,1029.91 1003.46,1026.98 1003.32,1023.8 1002.93,1020.36 1002.33,1016.66 1001.52,1012.69 1000.7,1008.62 999.713,1004.26 998.744,999.796 997.801,995.214 996.898,990.515 996.044,985.697 995.385,980.958 994.781,976.102 994.247,971.129 993.909,966.248 993.647,961.254 993.575,956.361 993.681,951.577 993.954,946.907 994.294,942.134 994.794,937.483 995.442,932.958 996.156,928.335 997.012,923.844 997.999,919.489 999.105,915.271 1000.27,910.959 1001.54,906.789 1002.92,902.762 1004.39,898.878 1005.94,895.137 1007.57,891.538 1009.23,887.844 1010.96,884.295 1012.75,880.888 1014.59,877.623 1016.46,874.259 1018.38,871.039 1020.35,867.959 1022.34,865.017 1024.36,861.972 1026.41,859.067 1028.48,856.298 1030.58,853.663 1032.69,850.92 1034.81,848.311 1036.95,845.833 1039.11,843.245 1041.27,840.787 1043.45,838.458 1045.63,836.017 1047.82,833.703 1050.01,831.514 1052.21,829.209 1054.41,827.03 1056.61,824.972 1058.82,822.796 1061.02,820.741 1063.23,818.568 1065.43,816.516 1067.64,814.346 1069.85,812.298 1072.06,810.368 1074.26,808.317 1076.46,806.384 1078.67,804.33 1080.87,802.394 1083.07,800.336 1085.26,798.398 1087.46,796.337 1089.65,794.395 1091.84,792.569 1094.03,790.618 1096.21,788.546 1098.4,786.592 1100.57,784.754 1102.75,782.79 1104.92,780.705 1107.09,778.739 1109.27,776.651 1111.44,774.682 1113.6,772.591 1115.77,770.619 1117.94,768.524 1120.1,766.549 1122.26,764.452 1124.42,762.474 1126.58,760.374 1128.74,758.392 1130.9,756.289 1133.05,754.305 1135.21,752.199 1137.36,750.211 1139.51,748.102 1141.66,746.112 1143.81,744 1145.95,742.006 1148.1,739.891 1150.24,737.895 1152.39,735.777 1154.53,733.777 1156.67,731.656 1158.81,729.654 1160.94,727.53 1163.08,725.524 1165.21,723.397 1167.34,721.389 1169.47,719.259 1171.6,717.248 1173.73,715.115 1175.86,713.1 1177.98,710.964 1180.11,708.947 1182.23,706.808 1184.35,704.55 1186.47,702.414 1188.6,700.159 1190.72,698.026 1192.85,695.774 1194.98,693.644 1197.11,691.632 1199.24,689.499 1201.37,687.247 1203.5,685.117 1205.63,682.868 1207.76,680.741 1209.89,678.732 1212.02,676.602 1214.15,674.353 1216.29,672.226 1218.42,669.98 1220.56,667.856 1222.69,665.85 1224.82,663.723 1226.96,661.477 1229.09,659.353 1231.23,657.11 1233.37,654.75 1235.52,652.278 1237.68,649.934 1239.84,647.477 1242.02,644.91 1244.21,642.474 1246.41,640.167 1248.61,637.746 1250.82,635.454 1253.05,633.049 1255.27,630.772 1257.51,628.383 1259.76,626.122 1262.01,623.748 1264.27,621.502 1266.53,619.382 1268.8,617.146 1271.07,615.035 1273.35,612.809 1275.62,610.707 1277.91,608.49 1280.19,606.398 1282.49,604.191 1284.78,602.109 1287.09,599.911 1289.39,597.838 1291.71,595.65 1294.02,593.587 1296.34,591.409 1298.66,589.356 1301,587.187 1303.32,585.144 1305.64,583.222 1307.98,581.182 1310.3,579.263 1312.63,577.226 1314.96,575.311 1317.29,573.277 1319.62,571.365 1321.96,569.334 1324.29,567.425 1326.63,565.398 1328.97,563.492 1331.31,561.468 1333.65,559.566 1336,557.545 1338.33,555.646 1340.69,553.629 1343.03,551.733 1345.38,549.719 1347.72,547.826 1350.08,545.815 1352.43,543.926 1354.79,541.919 1357.14,540.033 1359.5,538.028 1361.85,536.146 1364.21,534.145 1366.57,532.265 1368.94,530.268 1371.29,528.392 1373.66,526.397 1376.02,524.524 1378.4,522.533 1380.76,520.664 1383.13,518.676 1385.5,516.81 1387.88,514.825 1390.25,512.962 1392.63,510.981 1395,509.122 1397.38,507.144 1399.75,505.288 1402.14,503.313 1404.52,501.46 1406.91,499.489 1409.28,497.639 1411.68,495.672 1414.06,493.825 1416.45,491.861 1418.83,490.018 1421.23,488.057 1423.62,486.217 1426.02,484.259 1428.41,482.423 1430.81,480.468 1433.2,478.635 1435.61,476.684 1438,474.855 1440.41,472.907 1442.81,471.081 1445.22,469.136 1447.62,467.313 1450.03,465.373 1452.43,463.553 1454.85,461.615 1457.25,459.799 1459.67,457.865 1462.08,456.052 1464.5,454.121 1466.91,452.311 1469.33,450.384 1471.74,448.578 1474.17,446.654 1476.59,444.851 1479.02,442.93 1481.43,441.131 1483.87,439.214 1486.28,437.418 1488.72,435.504 1491.14,433.711 1493.58,431.801 1496,430.011 1498.44,428.104 1500.87,426.318 1503.31,424.415 1505.74,422.632 1508.19,420.732 1510.62,418.953 1513.07,417.056 1515.5,415.28 1517.92,413.622 1520.35,411.843 1522.76,410.181 1525.19,408.398 1527.64,406.498 1530.07,404.719 1532.48,403.057 1534.91,401.275 1537.36,399.375 1539.79,397.596 1542.2,395.934 1544.63,394.151 1547.07,392.251 1549.51,390.472 1551.92,388.81 1554.35,387.028 1556.79,385.128 1559.22,383.348 1561.64,381.687 1564.07,379.904 1566.51,378.004 1568.94,376.225 1571.36,374.563 1573.79,372.781 1576.2,371.116 1578.62,369.33 1581.07,367.426 1583.49,365.643 1585.9,363.978 1588.33,362.192 1590.77,360.289 1593.2,358.506 1595.61,356.841 1598.04,355.055 1600.45,353.387 1602.87,351.598 1605.31,349.691 1607.74,347.905 1610.15,346.236 1612.57,344.447 1615.01,342.54 1617.44,340.754 1619.85,339.086 1622.27,337.296 1624.67,335.624 1627.1,333.832 1629.53,331.921 1631.96,330.132 1634.36,328.46 1636.78,326.668 1639.19,324.992 1641.61,323.196 1644.04,321.282 1646.46,319.49 1648.87,317.815 1651.29,316.019 1653.69,314.34 1656.1,312.541 1658.54,310.623 1660.95,308.827 1663.36,307.149 1665.77,305.349 1668.17,303.668 1670.58,301.865 1672.98,300.18 1675.39,298.373 1677.79,296.685 1680.19,294.875 1682.62,292.948 1685.03,291.142 1687.42,289.453 1689.83,287.644 1692.22,285.952 1694.63,284.139 1697.02,282.444 1699.42,280.627 1701.81,278.929 1704.21,277.109 1706.6,275.407 1708.99,273.584 1711.38,271.879 1713.77,270.053 1716.15,268.344 1718.55,266.515 1720.92,264.803 1723.31,262.97 1725.69,261.255 1728.08,259.418 1730.45,257.7 1732.57,256.065 1734.69,254.534 1736.59,253.064 1738.53,251.671 1740.31,250.293 1742.02,249.073 1743.58,247.857 1745.18,246.718 1746.64,245.581 1748.03,244.604 1749.38,243.549 1750.66,242.652 1751.9,241.677 1753.08,240.862 1754.21,239.968 1755.28,239.233 1756.31,238.421 1757.28,237.768 1758.2,237.037 1759.06,236.466 1759.88,235.817 1760.63,235.328 1761.44,234.678 1762.19,234.188 1762.91,233.62 1763.55,233.212 1764.16,232.727 1764.7,232.402 1765.3,231.916 1765.84,231.591 1766.34,231.188 1766.78,230.946 1767.29,230.534 1767.76,230.047 1768.17,229.715 1768.55,229.518 1768.93,229.21 1769.32,228.786 1769.7,228.483 1769.97,228.374 1770.3,228.105 1770.58,227.77 1770.91,227.507 1771.16,227.411 1771.41,227.213 1771.66,226.903 1771.89,226.713 1772.11,226.642 1772.35,226.453 1772.57,226.382 1772.73,226.256 1772.95,225.969 1773.1,225.847 1773.25,225.618 1773.38,225.509 1773.51,225.519 1773.64,225.411 1773.76,225.421 1773.89,225.313 1774.04,225.086 1774.17,224.978 1774.3,224.988 1774.43,224.88 1774.58,224.653 1774.71,224.545 1774.76,224.61 1774.88,224.513 " />
</g>

<g fill="none" stroke="#edb120" stroke-opacity="1" stroke-width="3.73333" stroke-linecap="butt" stroke-linejoin="round" transform="matrix(0.392109,0,0,0.388904,-288.203,-37.7793)"
font-family="Helvetica" font-size="26" font-weight="400" font-style="normal" 
>
<polyline fill="none" vector-effect="none" points="867.875,1310.83 868.182,1310.41 869.035,1309.55 870.434,1308.28 872.138,1306.57 874.387,1304.44 876.515,1302.31 878.523,1300.18 880.653,1298.05 882.664,1295.92 884.797,1293.79 887.049,1291.66 889.18,1289.53 891.429,1287.4 893.556,1285.27 895.564,1283.14 897.694,1281.01 899.705,1278.88 901.839,1276.75 904.091,1274.62 906.221,1272.49 908.47,1270.36 910.597,1268.23 912.605,1266.1 914.735,1263.96 916.747,1261.83 918.88,1259.71 921.132,1257.58 923.262,1255.45 925.511,1253.32 927.638,1251.19 929.647,1249.05 931.777,1246.92 933.788,1244.79 935.921,1242.67 938.173,1240.54 940.303,1238.41 942.552,1236.28 944.68,1234.15 946.688,1232.01 948.818,1229.88 950.829,1227.75 952.962,1225.63 955.214,1223.5 957.345,1221.37 959.594,1219.24 961.721,1217.1 963.967,1214.97 966.091,1212.83 968.334,1210.7 970.456,1208.56 972.696,1206.42 974.814,1204.28 977.051,1202.13 979.167,1199.99 981.401,1197.84 983.513,1195.7 985.744,1193.55 987.853,1191.4 990.082,1189.24 992.188,1187.09 994.413,1184.93 996.516,1182.78 998.738,1180.62 1000.84,1178.46 1003.06,1176.3 1005.16,1174.14 1007.37,1171.97 1009.47,1169.81 1011.68,1167.64 1013.77,1165.47 1015.74,1163.3 1017.84,1161.14 1020.05,1158.97 1022.14,1156.8 1024.35,1154.63 1026.44,1152.46 1028.65,1150.29 1030.73,1148.11 1032.93,1145.93 1035.02,1143.76 1038.17,1141.55 1042.36,1139.24 1047.56,1136.74 1051.6,1134.17 1056.64,1131.35 1060.51,1128.53 1065.35,1125.39 1069.04,1122.34 1073.68,1118.91 1077.17,1115.63 1081.58,1111.91 1084.86,1108.42 1089.03,1104.43 1092.08,1100.74 1095.99,1096.5 1098.8,1092.63 1102.44,1088.14 1105.01,1084.1 1106.57,1080.59 1108.98,1076.45 1110.42,1072.88 1112.67,1068.66 1113.97,1065.04 1116.06,1060.74 1117.22,1057.07 1119.15,1052.69 1120.17,1048.98 1121.41,1045.01 1121.8,1041.76 1122.96,1037.77 1123.28,1034.51 1123.84,1031 1123.96,1027.91 1123.81,1025.06 1123.41,1022.46 1122.78,1020.11 1121.91,1017.99 1120.98,1015.93 1119.81,1014.1 1118.59,1012.31 1117.32,1010.57 1115.99,1008.87 1114.61,1007.2 1113.37,1005.43 1112.08,1003.7 1110.73,1001.99 1109.53,1000.19 1108.27,998.41 1107.18,996.545 1106.24,994.603 1105.46,992.593 1104.61,990.607 1103.93,988.561 1103.41,986.461 1102.83,984.385 1102.4,982.264 1102.14,980.103 1102.05,977.909 1101.87,975.739 1101.86,973.543 1102.01,971.326 1102.32,969.093 1102.78,966.847 1103.4,964.593 1103.93,962.363 1104.61,960.128 1105.44,957.892 1106.41,955.657 1107.3,953.441 1108.33,951.23 1109.5,949.025 1110.81,946.828 1112.03,944.644 1113.38,942.47 1114.87,940.307 1116.49,938.152 1118.01,936.007 1119.66,933.873 1121.44,931.75 1123.12,929.632 1124.92,927.526 1126.85,925.431 1128.67,923.337 1130.61,921.255 1132.68,919.182 1134.64,917.108 1136.71,915.043 1138.92,912.985 1141,910.924 1143.2,908.869 1145.28,906.811 1147.49,904.759 1149.58,902.703 1151.79,900.655 1154.11,898.611 1156.32,896.56 1158.65,894.512 1160.85,892.458 1163.17,890.407 1165.37,888.35 1167.69,886.296 1169.89,884.235 1172.2,882.178 1174.64,880.122 1176.94,878.055 1179.13,875.982 1181.43,873.912 1183.86,871.842 1186.15,869.763 1188.33,867.677 1190.62,865.595 1192.79,863.507 1195.08,861.421 1197.25,859.33 1199.54,857.241 1201.7,855.146 1203.99,853.054 1206.15,850.957 1208.43,848.862 1210.59,846.761 1212.87,844.663 1215.03,842.559 1217.3,840.458 1219.46,838.351 1221.73,836.246 1223.88,834.137 1226.15,832.029 1228.3,829.917 1230.56,827.805 1232.71,825.69 1234.97,823.576 1237.12,821.458 1239.38,819.34 1241.52,817.219 1243.77,815.098 1245.91,812.974 1248.16,810.85 1250.3,808.723 1252.55,806.595 1254.68,804.465 1256.93,802.335 1259.06,800.202 1261.3,798.068 1263.43,795.932 1265.67,793.796 1267.79,791.657 1269.79,789.518 1271.92,787.382 1273.92,785.246 1276.05,783.113 1278.06,780.98 1280.19,778.85 1282.44,776.72 1284.56,774.587 1286.57,772.453 1288.7,770.323 1290.71,768.193 1292.85,766.066 1295.1,763.939 1297.23,761.809 1299.24,759.678 1301.37,757.551 1303.39,755.424 1305.52,753.3 1307.78,751.176 1309.91,749.048 1311.93,746.921 1314.06,744.797 1316.08,742.672 1317.98,740.55 1319.77,738.431 1321.68,736.322 1323.49,734.216 1325.18,732.115 1327,730.027 1328.95,727.95 1330.79,725.874 1332.76,723.811 1334.61,721.749 1336.59,719.699 1338.46,717.65 1340.45,715.614 1342.33,713.578 1344.34,711.556 1346.47,709.547 1348.49,707.534 1350.63,705.535 1352.66,703.53 1354.8,701.539 1356.84,699.543 1359,697.561 1361.04,695.574 1363.2,693.601 1365.25,691.622 1367.43,689.658 1369.49,687.688 1371.67,685.733 1373.73,683.772 1375.93,681.826 1378,679.873 1380.2,677.937 1382.52,676.015 1384.72,674.082 1387.04,672.164 1389.25,670.234 1391.57,668.318 1393.78,666.391 1396.11,664.479 1398.32,662.555 1400.65,660.646 1402.86,658.726 1405.19,656.82 1407.41,654.902 1409.74,653 1411.96,651.086 1414.3,649.186 1416.52,647.275 1418.86,645.379 1421.08,643.471 1423.43,641.578 1425.65,639.673 1428,637.784 1430.23,635.882 1432.58,633.996 1434.81,632.097 1437.16,630.214 1439.39,628.318 1441.75,626.439 1443.98,624.546 1446.34,622.67 1448.58,620.78 1450.94,618.907 1453.18,617.021 1455.54,615.151 1457.78,613.268 1460.15,611.401 1462.4,609.521 1464.76,607.658 1467.01,605.781 1469.38,603.921 1471.63,602.047 1474.01,600.191 1476.26,598.32 1478.64,596.467 1480.89,594.599 1483.27,592.75 1485.53,590.885 1487.91,589.039 1490.17,587.177 1492.56,585.334 1494.82,583.476 1497.21,581.636 1499.48,579.781 1501.86,577.945 1504.13,576.093 1506.52,574.26 1508.8,572.411 1511.19,570.582 1513.47,568.736 1515.86,566.91 1518.14,565.067 1520.54,563.244 1522.82,561.405 1525.22,559.585 1527.5,557.75 1529.9,555.933 1532.19,554.1 1534.6,552.287 1536.88,550.458 1539.29,548.648 1541.58,546.822 1543.99,545.016 1546.29,543.192 1548.7,541.389 1551,539.569 1553.41,537.77 1555.71,535.953 1558.13,534.157 1560.43,532.343 1562.85,530.551 1565.15,528.74 1567.58,526.951 1569.88,525.144 1572.31,523.358 1574.62,521.554 1577.05,519.771 1579.36,517.971 1581.79,516.191 1584.1,514.394 1586.54,512.618 1589.09,510.861 1591.52,509.081 1594.07,507.32 1596.49,505.538 1598.81,503.737 1601.24,501.958 1603.78,500.197 1606.21,498.414 1608.52,496.613 1610.95,494.834 1613.5,493.073 1615.93,491.291 1618.24,489.49 1620.67,487.711 1623.22,485.95 1625.65,484.167 1627.96,482.366 1630.39,480.587 1632.94,478.826 1635.37,477.043 1637.68,475.243 1640.11,473.463 1642.66,471.702 1645.09,469.92 1647.63,468.155 1650.06,466.369 1652.37,464.565 1654.8,462.783 1657.34,461.018 1659.77,459.232 1662.08,457.428 1664.51,455.645 1667.05,453.881 1669.48,452.095 1672.02,450.327 1674.45,448.537 1676.75,446.73 1679.18,444.944 1681.72,443.176 1684.14,441.387 1686.45,439.579 1688.88,437.793 1691.42,436.025 1693.84,434.236 1696.38,432.464 1698.81,430.671 1701.11,428.861 1703.53,427.072 1706.07,425.3 1708.49,423.507 1711.03,421.732 1713.45,419.936 1715.75,418.122 1718.17,416.329 1720.71,414.554 1723.13,412.758 1725.67,410.979 1728.08,409.18 1730.38,407.363 1732.8,405.567 1735.34,403.788 1737.75,401.988 1740.29,400.206 1742.7,398.403 1745.23,396.617 1747.64,394.811 1750.17,393.022 1752.58,391.212 1754.87,389.386 1757.28,387.579 1759.81,385.79 1762.22,383.98 1764.74,382.187 1767.15,380.374 1769.67,378.578 1772.08,376.762 1774.6,374.962 1777,373.142 1779.52,371.338 1781.92,369.515 1784.43,367.708 1786.83,365.882 1789.34,364.071 1791.73,362.242 1794.25,360.428 1796.64,358.594 1799.14,356.777 1801.53,354.941 1804.04,353.119 1806.16,351.484 1808.42,349.85 1810.32,348.38 1812.39,346.885 1814.16,345.506 1816.01,344.184 1817.57,342.967 1819.3,341.725 1820.76,340.588 1822.28,339.508 1823.63,338.452 1825.05,337.452 1826.29,336.477 1827.6,335.557 1828.73,334.664 1829.93,333.825 1830.96,333.012 1832.06,332.255 1832.98,331.524 1833.97,330.849 1834.79,330.2 1835.67,329.606 1836.49,328.956 1837.37,328.361 1838.08,327.793 1838.86,327.28 1839.47,326.795 1840.14,326.365 1840.74,325.879 1841.41,325.448 1841.91,325.045 1842.48,324.697 1842.99,324.286 1843.33,323.905 1843.74,323.573 1844.25,323.27 1844.63,322.962 1844.89,322.644 1845.27,322.34 1845.67,322.126 1846,321.857 1846.15,321.628 1846.48,321.364 1846.86,321.163 1847.11,320.965 1847.23,320.761 1847.46,320.571 1847.82,320.394 1848.05,320.205 1848.4,320.028 1848.56,319.902 1848.65,319.721 1848.8,319.599 1848.82,319.475 1848.95,319.367 1849.21,319.271 1849.34,319.163 1849.59,319.067 1849.73,318.959 1849.74,318.838 1849.88,318.73 1850.13,318.635 1850.26,318.526 1850.28,318.405 1850.41,318.297 1850.6,318.256 1850.72,318.159 " />
</g>

<g fill="none" stroke="#0072bd" stroke-opacity="1" stroke-width="1.33333" stroke-linecap="butt" stroke-linejoin="miter" stroke-miterlimit="2" transform="matrix(0.392109,0,0,0.388904,-288.203,-37.7793)"
font-family="Helvetica" font-size="26" font-weight="400" font-style="normal" 
>
<path vector-effect="none" fill-rule="evenodd" d="M967.978,1114.85 L958.763,1130.81 L977.192,1130.81 L967.978,1114.85"/>
<path vector-effect="none" fill-rule="evenodd" d="M1060.22,998.456 L1051,1014.42 L1069.43,1014.42 L1060.22,998.456"/>
<path vector-effect="none" fill-rule="evenodd" d="M1101.47,857.794 L1092.26,873.754 L1110.69,873.754 L1101.47,857.794"/>
<path vector-effect="none" fill-rule="evenodd" d="M1209.62,753.023 L1200.41,768.984 L1218.84,768.984 L1209.62,753.023"/>
<path vector-effect="none" fill-rule="evenodd" d="M1316.44,646.827 L1307.22,662.787 L1325.65,662.787 L1316.44,646.827"/>
<path vector-effect="none" fill-rule="evenodd" d="M1430.11,548.104 L1420.89,564.064 L1439.32,564.064 L1430.11,548.104"/>
<path vector-effect="none" fill-rule="evenodd" d="M1548.86,455.457 L1539.65,471.417 L1558.07,471.417 L1548.86,455.457"/>
<path vector-effect="none" fill-rule="evenodd" d="M1670.14,366.139 L1660.93,382.099 L1679.36,382.099 L1670.14,366.139"/>
<path vector-effect="none" fill-rule="evenodd" d="M1791.02,276.272 L1781.81,292.232 L1800.24,292.232 L1791.02,276.272"/>
<path vector-effect="none" fill-rule="evenodd" d="M1854.69,226.759 L1845.48,242.719 L1863.91,242.719 L1854.69,226.759"/>
</g>

<g fill="none" stroke="#d95319" stroke-opacity="1" stroke-width="1.33333" stroke-linecap="butt" stroke-linejoin="miter" stroke-miterlimit="2" transform="matrix(0.392109,0,0,0.388904,-288.203,-37.7793)"
font-family="Helvetica" font-size="26" font-weight="400" font-style="normal" 
>
<path vector-effect="none" fill-rule="evenodd" d="M882.772,1115.21 L873.558,1131.17 L891.986,1131.17 L882.772,1115.21"/>
<path vector-effect="none" fill-rule="evenodd" d="M988.725,1044.81 L979.511,1060.77 L997.94,1060.77 L988.725,1044.81"/>
<path vector-effect="none" fill-rule="evenodd" d="M1016.46,863.619 L1007.25,879.579 L1025.68,879.579 L1016.46,863.619"/>
<path vector-effect="none" fill-rule="evenodd" d="M1124.42,751.834 L1115.21,767.794 L1133.64,767.794 L1124.42,751.834"/>
<path vector-effect="none" fill-rule="evenodd" d="M1231.23,646.47 L1222.02,662.43 L1240.45,662.43 L1231.23,646.47"/>
<path vector-effect="none" fill-rule="evenodd" d="M1345.38,539.079 L1336.17,555.039 L1354.59,555.039 L1345.38,539.079"/>
<path vector-effect="none" fill-rule="evenodd" d="M1464.5,443.481 L1455.29,459.441 L1473.71,459.441 L1464.5,443.481"/>
<path vector-effect="none" fill-rule="evenodd" d="M1585.9,353.338 L1576.69,369.298 L1595.12,369.298 L1585.9,353.338"/>
<path vector-effect="none" fill-rule="evenodd" d="M1706.6,264.767 L1697.38,280.727 L1715.81,280.727 L1706.6,264.767"/>
<path vector-effect="none" fill-rule="evenodd" d="M1769.97,217.734 L1760.75,233.694 L1779.18,233.694 L1769.97,217.734"/>
</g>

<g fill="none" stroke="#edb120" stroke-opacity="1" stroke-width="1.33333" stroke-linecap="butt" stroke-linejoin="miter" stroke-miterlimit="2" transform="matrix(0.392109,0,0,0.388904,-288.203,-37.7793)"
font-family="Helvetica" font-size="26" font-weight="400" font-style="normal" 
>
<path vector-effect="none" fill-rule="evenodd" d="M968.334,1200.06 L959.12,1216.02 L977.549,1216.02 L968.334,1200.06"/>
<path vector-effect="none" fill-rule="evenodd" d="M1106.57,1069.95 L1097.36,1085.91 L1115.79,1085.91 L1106.57,1069.95"/>
<path vector-effect="none" fill-rule="evenodd" d="M1107.3,942.801 L1098.08,958.761 L1116.51,958.761 L1107.3,942.801"/>
<path vector-effect="none" fill-rule="evenodd" d="M1208.43,838.221 L1199.22,854.182 L1217.65,854.182 L1208.43,838.221"/>
<path vector-effect="none" fill-rule="evenodd" d="M1316.08,732.032 L1306.87,747.992 L1325.29,747.992 L1316.08,732.032"/>
<path vector-effect="none" fill-rule="evenodd" d="M1421.08,632.831 L1411.87,648.791 L1430.3,648.791 L1421.08,632.831"/>
<path vector-effect="none" fill-rule="evenodd" d="M1536.88,539.818 L1527.67,555.778 L1546.1,555.778 L1536.88,539.818"/>
<path vector-effect="none" fill-rule="evenodd" d="M1657.34,450.378 L1648.13,466.338 L1666.56,466.338 L1657.34,450.378"/>
<path vector-effect="none" fill-rule="evenodd" d="M1779.52,360.698 L1770.3,376.658 L1788.73,376.658 L1779.52,360.698"/>
<path vector-effect="none" fill-rule="evenodd" d="M1845.67,311.486 L1836.46,327.446 L1854.88,327.446 L1845.67,311.486"/>
</g>
</g>
</svg>
