<?xml version="1.0" encoding="UTF-8" standalone="no"?>
<svg width="175.331mm" height="170.039mm"
 viewBox="0 0 497 482"
 xmlns="http://www.w3.org/2000/svg" xmlns:xlink="http://www.w3.org/1999/xlink"  version="1.2" baseProfile="tiny">
<title>Qt SVG Document</title>
<desc>MATLAB, The MathWorks, Inc. Version 25.1.0.2943329 R2025a</desc>
<defs>
</defs>
<g fill="none" stroke="black" stroke-width="1" fill-rule="evenodd" stroke-linecap="square" stroke-linejoin="bevel" >

<g fill="#ffffff" fill-opacity="1" stroke="none" transform="matrix(0.388571,0,0,0.386095,-280.984,-41.0991)"
font-family="SimSun" font-size="9" font-weight="400" font-style="normal" 
>
<path vector-effect="none" fill-rule="evenodd" d="M722,106 L2001,106 L2001,1354 L722,1354 L722,106"/>
</g>

<g fill="#ffffff" fill-opacity="1" stroke="none" transform="matrix(3.88571e-05,0,0,3.86095e-05,-280.984,-41.0991)"
font-family="SimSun" font-size="9" font-weight="400" font-style="normal" 
>
<path vector-effect="none" fill-rule="evenodd" d="M7.64647e+06,1.11e+06 L7.64647e+06,1.315e+07 L1.99635e+07,1.315e+07 L1.99635e+07,1.11e+06 L7.64647e+06,1.11e+06"/>
</g>

<g fill="#212121" fill-opacity="0.14902" stroke="#212121" stroke-opacity="0.14902" stroke-width="1.33333" stroke-linecap="butt" stroke-linejoin="round" transform="matrix(0.388571,0,0,0.386095,-280.984,-41.0991)"
font-family="SimSun" font-size="9" font-weight="400" font-style="normal" 
>
<polyline fill="none" vector-effect="none" points="764.647,111 764.647,1315 " />
<polyline fill="none" vector-effect="none" points="920.527,111 920.527,1315 " />
<polyline fill="none" vector-effect="none" points="1076.41,111 1076.41,1315 " />
<polyline fill="none" vector-effect="none" points="1232.29,111 1232.29,1315 " />
<polyline fill="none" vector-effect="none" points="1388.17,111 1388.17,1315 " />
<polyline fill="none" vector-effect="none" points="1544.05,111 1544.05,1315 " />
<polyline fill="none" vector-effect="none" points="1699.93,111 1699.93,1315 " />
<polyline fill="none" vector-effect="none" points="1855.81,111 1855.81,1315 " />
<polyline fill="none" vector-effect="none" points="764.647,1315 1996.35,1315 " />
<polyline fill="none" vector-effect="none" points="764.647,1159.12 1996.35,1159.12 " />
<polyline fill="none" vector-effect="none" points="764.647,1003.24 1996.35,1003.24 " />
<polyline fill="none" vector-effect="none" points="764.647,847.361 1996.35,847.361 " />
<polyline fill="none" vector-effect="none" points="764.647,691.481 1996.35,691.481 " />
<polyline fill="none" vector-effect="none" points="764.647,535.601 1996.35,535.601 " />
<polyline fill="none" vector-effect="none" points="764.647,379.721 1996.35,379.721 " />
<polyline fill="none" vector-effect="none" points="764.647,223.841 1996.35,223.841 " />
</g>

<g fill="#212121" fill-opacity="1" stroke="#212121" stroke-opacity="1" stroke-width="1.33333" stroke-linecap="square" stroke-linejoin="round" transform="matrix(0.388571,0,0,0.386095,-280.984,-41.0991)"
font-family="SimSun" font-size="9" font-weight="400" font-style="normal" 
>
<polyline fill="none" vector-effect="none" points="764.647,1315 1996.35,1315 " />
<polyline fill="none" vector-effect="none" points="764.647,111 1996.35,111 " />
<polyline fill="none" vector-effect="none" points="764.647,1315 764.647,1302.68 " />
<polyline fill="none" vector-effect="none" points="764.647,123.317 764.647,111 " />
<polyline fill="none" vector-effect="none" points="920.527,1315 920.527,1302.68 " />
<polyline fill="none" vector-effect="none" points="920.527,123.317 920.527,111 " />
<polyline fill="none" vector-effect="none" points="1076.41,1315 1076.41,1302.68 " />
<polyline fill="none" vector-effect="none" points="1076.41,123.317 1076.41,111 " />
<polyline fill="none" vector-effect="none" points="1232.29,1315 1232.29,1302.68 " />
<polyline fill="none" vector-effect="none" points="1232.29,123.317 1232.29,111 " />
<polyline fill="none" vector-effect="none" points="1388.17,1315 1388.17,1302.68 " />
<polyline fill="none" vector-effect="none" points="1388.17,123.317 1388.17,111 " />
<polyline fill="none" vector-effect="none" points="1544.05,1315 1544.05,1302.68 " />
<polyline fill="none" vector-effect="none" points="1544.05,123.317 1544.05,111 " />
<polyline fill="none" vector-effect="none" points="1699.93,1315 1699.93,1302.68 " />
<polyline fill="none" vector-effect="none" points="1699.93,123.317 1699.93,111 " />
<polyline fill="none" vector-effect="none" points="1855.81,1315 1855.81,1302.68 " />
<polyline fill="none" vector-effect="none" points="1855.81,123.317 1855.81,111 " />
</g>

<g fill="#212121" fill-opacity="1" stroke="#212121" stroke-opacity="1" stroke-width="1" stroke-linecap="square" stroke-linejoin="bevel" transform="matrix(0.388571,0,0,0.386095,13.4162,480)"
font-family="Helvetica" font-size="26" font-weight="400" font-style="normal" 
>
<text fill="#212121" fill-opacity="1" stroke="none" xml:space="preserve" x="0" y="0" font-family="Helvetica" font-size="26" font-weight="400" font-style="normal" 
 >0</text>
</g>

<g fill="#212121" fill-opacity="1" stroke="#212121" stroke-opacity="1" stroke-width="1" stroke-linecap="square" stroke-linejoin="bevel" transform="matrix(0.388571,0,0,0.386095,73.9865,480)"
font-family="Helvetica" font-size="26" font-weight="400" font-style="normal" 
>
<text fill="#212121" fill-opacity="1" stroke="none" xml:space="preserve" x="0" y="0" font-family="Helvetica" font-size="26" font-weight="400" font-style="normal" 
 >5</text>
</g>

<g fill="#212121" fill-opacity="1" stroke="#212121" stroke-opacity="1" stroke-width="1" stroke-linecap="square" stroke-linejoin="bevel" transform="matrix(0.388571,0,0,0.386095,131.837,480)"
font-family="Helvetica" font-size="26" font-weight="400" font-style="normal" 
>
<text fill="#212121" fill-opacity="1" stroke="none" xml:space="preserve" x="0" y="0" font-family="Helvetica" font-size="26" font-weight="400" font-style="normal" 
 >10</text>
</g>

<g fill="#212121" fill-opacity="1" stroke="#212121" stroke-opacity="1" stroke-width="1" stroke-linecap="square" stroke-linejoin="bevel" transform="matrix(0.388571,0,0,0.386095,192.407,480)"
font-family="Helvetica" font-size="26" font-weight="400" font-style="normal" 
>
<text fill="#212121" fill-opacity="1" stroke="none" xml:space="preserve" x="0" y="0" font-family="Helvetica" font-size="26" font-weight="400" font-style="normal" 
 >15</text>
</g>

<g fill="#212121" fill-opacity="1" stroke="#212121" stroke-opacity="1" stroke-width="1" stroke-linecap="square" stroke-linejoin="bevel" transform="matrix(0.388571,0,0,0.386095,252.978,480)"
font-family="Helvetica" font-size="26" font-weight="400" font-style="normal" 
>
<text fill="#212121" fill-opacity="1" stroke="none" xml:space="preserve" x="0" y="0" font-family="Helvetica" font-size="26" font-weight="400" font-style="normal" 
 >20</text>
</g>

<g fill="#212121" fill-opacity="1" stroke="#212121" stroke-opacity="1" stroke-width="1" stroke-linecap="square" stroke-linejoin="bevel" transform="matrix(0.388571,0,0,0.386095,313.548,480)"
font-family="Helvetica" font-size="26" font-weight="400" font-style="normal" 
>
<text fill="#212121" fill-opacity="1" stroke="none" xml:space="preserve" x="0" y="0" font-family="Helvetica" font-size="26" font-weight="400" font-style="normal" 
 >25</text>
</g>

<g fill="#212121" fill-opacity="1" stroke="#212121" stroke-opacity="1" stroke-width="1" stroke-linecap="square" stroke-linejoin="bevel" transform="matrix(0.388571,0,0,0.386095,374.118,480)"
font-family="Helvetica" font-size="26" font-weight="400" font-style="normal" 
>
<text fill="#212121" fill-opacity="1" stroke="none" xml:space="preserve" x="0" y="0" font-family="Helvetica" font-size="26" font-weight="400" font-style="normal" 
 >30</text>
</g>

<g fill="#212121" fill-opacity="1" stroke="#212121" stroke-opacity="1" stroke-width="1" stroke-linecap="square" stroke-linejoin="bevel" transform="matrix(0.388571,0,0,0.386095,434.689,480)"
font-family="Helvetica" font-size="26" font-weight="400" font-style="normal" 
>
<text fill="#212121" fill-opacity="1" stroke="none" xml:space="preserve" x="0" y="0" font-family="Helvetica" font-size="26" font-weight="400" font-style="normal" 
 >35</text>
</g>

<g fill="#212121" fill-opacity="1" stroke="#212121" stroke-opacity="1" stroke-width="1.33333" stroke-linecap="square" stroke-linejoin="round" transform="matrix(0.388571,0,0,0.386095,-280.984,-41.0991)"
font-family="Helvetica" font-size="26" font-weight="400" font-style="normal" 
>
<polyline fill="none" vector-effect="none" points="764.647,1315 764.647,111 " />
<polyline fill="none" vector-effect="none" points="1996.35,1315 1996.35,111 " />
<polyline fill="none" vector-effect="none" points="764.647,1315 776.964,1315 " />
<polyline fill="none" vector-effect="none" points="1984.04,1315 1996.35,1315 " />
<polyline fill="none" vector-effect="none" points="764.647,1159.12 776.964,1159.12 " />
<polyline fill="none" vector-effect="none" points="1984.04,1159.12 1996.35,1159.12 " />
<polyline fill="none" vector-effect="none" points="764.647,1003.24 776.964,1003.24 " />
<polyline fill="none" vector-effect="none" points="1984.04,1003.24 1996.35,1003.24 " />
<polyline fill="none" vector-effect="none" points="764.647,847.361 776.964,847.361 " />
<polyline fill="none" vector-effect="none" points="1984.04,847.361 1996.35,847.361 " />
<polyline fill="none" vector-effect="none" points="764.647,691.481 776.964,691.481 " />
<polyline fill="none" vector-effect="none" points="1984.04,691.481 1996.35,691.481 " />
<polyline fill="none" vector-effect="none" points="764.647,535.601 776.964,535.601 " />
<polyline fill="none" vector-effect="none" points="1984.04,535.601 1996.35,535.601 " />
<polyline fill="none" vector-effect="none" points="764.647,379.721 776.964,379.721 " />
<polyline fill="none" vector-effect="none" points="1984.04,379.721 1996.35,379.721 " />
<polyline fill="none" vector-effect="none" points="764.647,223.841 776.964,223.841 " />
<polyline fill="none" vector-effect="none" points="1984.04,223.841 1996.35,223.841 " />
</g>

<g fill="#212121" fill-opacity="1" stroke="#212121" stroke-opacity="1" stroke-width="1" stroke-linecap="square" stroke-linejoin="bevel" transform="matrix(0.388571,0,0,0.386095,6.55142,470.09)"
font-family="Helvetica" font-size="26" font-weight="400" font-style="normal" 
>
<text fill="#212121" fill-opacity="1" stroke="none" xml:space="preserve" x="0" y="0" font-family="Helvetica" font-size="26" font-weight="400" font-style="normal" 
 >0</text>
</g>

<g fill="#212121" fill-opacity="1" stroke="#212121" stroke-opacity="1" stroke-width="1" stroke-linecap="square" stroke-linejoin="bevel" transform="matrix(0.388571,0,0,0.386095,6.55142,409.906)"
font-family="Helvetica" font-size="26" font-weight="400" font-style="normal" 
>
<text fill="#212121" fill-opacity="1" stroke="none" xml:space="preserve" x="0" y="0" font-family="Helvetica" font-size="26" font-weight="400" font-style="normal" 
 >5</text>
</g>

<g fill="#212121" fill-opacity="1" stroke="#212121" stroke-opacity="1" stroke-width="1" stroke-linecap="square" stroke-linejoin="bevel" transform="matrix(0.388571,0,0,0.386095,1.11143,349.722)"
font-family="Helvetica" font-size="26" font-weight="400" font-style="normal" 
>
<text fill="#212121" fill-opacity="1" stroke="none" xml:space="preserve" x="0" y="0" font-family="Helvetica" font-size="26" font-weight="400" font-style="normal" 
 >10</text>
</g>

<g fill="#212121" fill-opacity="1" stroke="#212121" stroke-opacity="1" stroke-width="1" stroke-linecap="square" stroke-linejoin="bevel" transform="matrix(0.388571,0,0,0.386095,1.11143,289.537)"
font-family="Helvetica" font-size="26" font-weight="400" font-style="normal" 
>
<text fill="#212121" fill-opacity="1" stroke="none" xml:space="preserve" x="0" y="0" font-family="Helvetica" font-size="26" font-weight="400" font-style="normal" 
 >15</text>
</g>

<g fill="#212121" fill-opacity="1" stroke="#212121" stroke-opacity="1" stroke-width="1" stroke-linecap="square" stroke-linejoin="bevel" transform="matrix(0.388571,0,0,0.386095,1.11143,229.353)"
font-family="Helvetica" font-size="26" font-weight="400" font-style="normal" 
>
<text fill="#212121" fill-opacity="1" stroke="none" xml:space="preserve" x="0" y="0" font-family="Helvetica" font-size="26" font-weight="400" font-style="normal" 
 >20</text>
</g>

<g fill="#212121" fill-opacity="1" stroke="#212121" stroke-opacity="1" stroke-width="1" stroke-linecap="square" stroke-linejoin="bevel" transform="matrix(0.388571,0,0,0.386095,1.11143,169.168)"
font-family="Helvetica" font-size="26" font-weight="400" font-style="normal" 
>
<text fill="#212121" fill-opacity="1" stroke="none" xml:space="preserve" x="0" y="0" font-family="Helvetica" font-size="26" font-weight="400" font-style="normal" 
 >25</text>
</g>

<g fill="#212121" fill-opacity="1" stroke="#212121" stroke-opacity="1" stroke-width="1" stroke-linecap="square" stroke-linejoin="bevel" transform="matrix(0.388571,0,0,0.386095,1.11143,108.984)"
font-family="Helvetica" font-size="26" font-weight="400" font-style="normal" 
>
<text fill="#212121" fill-opacity="1" stroke="none" xml:space="preserve" x="0" y="0" font-family="Helvetica" font-size="26" font-weight="400" font-style="normal" 
 >30</text>
</g>

<g fill="#212121" fill-opacity="1" stroke="#212121" stroke-opacity="1" stroke-width="1" stroke-linecap="square" stroke-linejoin="bevel" transform="matrix(0.388571,0,0,0.386095,1.11143,48.7997)"
font-family="Helvetica" font-size="26" font-weight="400" font-style="normal" 
>
<text fill="#212121" fill-opacity="1" stroke="none" xml:space="preserve" x="0" y="0" font-family="Helvetica" font-size="26" font-weight="400" font-style="normal" 
 >35</text>
</g>

<g fill="none" stroke="#000000" stroke-opacity="1" stroke-width="3.46667" stroke-linecap="butt" stroke-linejoin="round" transform="matrix(0.388571,0,0,0.386095,-280.984,-41.0991)"
font-family="Helvetica" font-size="26" font-weight="400" font-style="normal" 
>
<polyline fill="none" vector-effect="none" points="1606.4,940.888 1606.39,938.706 1606.35,936.524 1606.3,934.343 1606.22,932.162 1606.13,929.981 1606.01,927.802 1605.86,925.625 1605.7,923.449 1605.52,921.274 1605.31,919.102 1605.08,916.931 1604.83,914.764 1604.56,912.598 1604.26,910.436 1603.95,908.276 1603.61,906.12 1603.25,903.968 1602.87,901.819 1602.47,899.674 1602.05,897.533 1601.6,895.396 1601.14,893.264 1600.65,891.137 1600.14,889.014 1599.61,886.897 1599.06,884.785 1598.49,882.679 1597.9,880.579 1597.29,878.485 1596.65,876.397 1596,874.315 1595.32,872.24 1594.62,870.172 1593.91,868.111 1593.17,866.057 1592.41,864.011 1591.63,861.973 1590.83,859.942 1590.01,857.919 1589.17,855.905 1588.31,853.899 1587.43,851.902 1586.53,849.914 1585.61,847.935 1584.67,845.965 1583.71,844.005 1582.73,842.054 1581.74,840.114 1580.72,838.183 1579.68,836.263 1578.63,834.353 1577.55,832.453 1576.46,830.565 1575.35,828.688 1574.21,826.822 1573.06,824.967 1571.9,823.124 1570.71,821.292 1569.5,819.473 1568.28,817.666 1567.04,815.871 1565.78,814.088 1564.5,812.318 1563.21,810.562 1561.9,808.818 1560.57,807.087 1559.22,805.37 1557.86,803.666 1556.48,801.976 1555.08,800.3 1553.67,798.638 1552.23,796.99 1550.79,795.356 1549.32,793.738 1547.84,792.133 1546.35,790.544 1544.84,788.97 1543.31,787.411 1541.77,785.867 1540.21,784.339 1538.64,782.826 1537.05,781.329 1535.45,779.849 1533.83,778.384 1532.2,776.935 1530.55,775.503 1528.89,774.088 1527.21,772.689 1525.52,771.307 1523.82,769.942 1522.11,768.594 1520.38,767.263 1518.63,765.95 1516.88,764.654 1515.11,763.375 1513.33,762.115 1511.53,760.872 1509.73,759.648 1507.91,758.441 1506.08,757.253 1504.24,756.083 1502.38,754.932 1500.52,753.799 1498.64,752.685 1496.75,751.589 1494.85,750.513 1492.94,749.456 1491.03,748.417 1489.1,747.398 1487.16,746.399 1485.21,745.419 1483.25,744.458 1481.28,743.517 1479.3,742.596 1477.31,741.695 1475.32,740.813 1473.31,739.952 1471.3,739.11 1469.27,738.289 1467.24,737.488 1465.21,736.707 1463.16,735.947 1461.11,735.208 1459.05,734.488 1456.98,733.79 1454.91,733.112 1452.82,732.455 1450.74,731.819 1448.64,731.204 1446.54,730.61 1444.44,730.036 1442.33,729.484 1440.21,728.953 1438.09,728.443 1435.96,727.955 1433.83,727.487 1431.69,727.042 1429.55,726.617 1427.41,726.214 1425.26,725.832 1423.11,725.472 1420.95,725.133 1418.79,724.816 1416.63,724.521 1414.46,724.247 1412.3,723.995 1410.13,723.764 1407.95,723.556 1405.78,723.369 1403.6,723.203 1401.43,723.06 1399.25,722.938 1397.07,722.838 1394.89,722.76 1392.7,722.704 1390.52,722.67 1388.34,722.657 1386.16,722.666 1383.98,722.697 1381.79,722.75 1379.61,722.824 1377.43,722.921 1375.25,723.039 1373.08,723.179 1370.9,723.341 1368.73,723.524 1366.55,723.73 1364.38,723.957 1362.21,724.205 1360.05,724.476 1357.89,724.768 1355.73,725.081 1353.57,725.417 1351.42,725.773 1349.27,726.152 1347.12,726.551 1344.98,726.972 1342.84,727.415 1340.71,727.879 1338.58,728.364 1336.46,728.871 1334.34,729.398 1332.23,729.947 1330.12,730.517 1328.02,731.108 1325.93,731.72 1323.84,732.352 1321.76,733.006 1319.68,733.681 1317.61,734.376 1315.55,735.092 1313.5,735.828 1311.45,736.585 1309.41,737.362 1307.38,738.16 1305.36,738.978 1303.34,739.816 1301.34,740.674 1299.34,741.553 1297.35,742.451 1295.37,743.369 1293.4,744.307 1291.44,745.264 1289.49,746.241 1287.55,747.238 1285.61,748.254 1283.69,749.289 1281.78,750.343 1279.88,751.417 1277.99,752.509 1276.11,753.62 1274.25,754.75 1272.39,755.898 1270.55,757.065 1268.72,758.251 1266.9,759.454 1265.09,760.676 1263.29,761.916 1261.51,763.174 1259.74,764.449 1257.98,765.742 1256.23,767.053 1254.5,768.381 1252.78,769.726 1251.08,771.088 1249.39,772.468 1247.71,773.864 1246.05,775.277 1244.4,776.706 1242.76,778.152 1241.14,779.614 1239.54,781.092 1237.95,782.587 1236.37,784.097 1234.81,785.622 1233.27,787.164 1231.74,788.72 1230.22,790.292 1228.73,791.879 1227.24,793.481 1225.78,795.098 1224.33,796.729 1222.89,798.374 1221.48,800.034 1220.08,801.708 1218.69,803.396 1217.33,805.097 1215.98,806.813 1214.65,808.541 1213.33,810.283 1212.03,812.038 1210.75,813.805 1209.49,815.586 1208.25,817.379 1207.02,819.184 1205.81,821.002 1204.62,822.831 1203.45,824.673 1202.3,826.525 1201.17,828.39 1200.05,830.265 1198.95,832.152 1197.88,834.05 1196.82,835.958 1195.78,837.876 1194.76,839.805 1193.76,841.745 1192.77,843.694 1191.81,845.652 1190.87,847.621 1189.95,849.598 1189.04,851.585 1188.16,853.581 1187.3,855.585 1186.45,857.598 1185.63,859.619 1184.83,861.649 1184.05,863.686 1183.29,865.731 1182.54,867.783 1181.82,869.843 1181.12,871.91 1180.44,873.984 1179.78,876.065 1179.15,878.152 1178.53,880.245 1177.93,882.344 1177.36,884.45 1176.81,886.56 1176.27,888.677 1175.76,890.798 1175.27,892.925 1174.8,895.056 1174.35,897.192 1173.93,899.332 1173.52,901.477 1173.14,903.625 1172.78,905.777 1172.44,907.933 1172.12,910.092 1171.82,912.254 1171.55,914.418 1171.29,916.586 1171.06,918.756 1170.85,920.928 1170.66,923.102 1170.49,925.278 1170.35,927.456 1170.23,929.634 1170.12,931.814 1170.04,933.995 1169.99,936.177 1169.95,938.359 1169.94,940.541 1169.94,942.723 1169.97,944.905 1170.02,947.087 1170.1,949.268 1170.19,951.448 1170.31,953.628 1170.45,955.806 1170.61,957.982 1170.79,960.157 1170.99,962.329 1171.22,964.5 1171.46,966.668 1171.73,968.834 1172.02,970.997 1172.33,973.157 1172.67,975.314 1173.02,977.467 1173.4,979.616 1173.8,981.762 1174.22,983.904 1174.66,986.041 1175.12,988.174 1175.6,990.302 1176.11,992.425 1176.63,994.543 1177.18,996.656 1177.75,998.763 1178.34,1000.86 1178.95,1002.96 1179.58,1005.05 1180.23,1007.13 1180.9,1009.21 1181.6,1011.28 1182.31,1013.34 1183.05,1015.39 1183.8,1017.44 1184.58,1019.48 1185.37,1021.51 1186.19,1023.54 1187.03,1025.55 1187.88,1027.56 1188.76,1029.56 1189.66,1031.55 1190.57,1033.53 1191.51,1035.5 1192.47,1037.46 1193.44,1039.41 1194.44,1041.35 1195.45,1043.29 1196.48,1045.21 1197.54,1047.12 1198.61,1049.02 1199.7,1050.91 1200.81,1052.79 1201.94,1054.66 1203.08,1056.52 1204.25,1058.36 1205.43,1060.19 1206.64,1062.02 1207.86,1063.82 1209.09,1065.62 1210.35,1067.41 1211.62,1069.18 1212.92,1070.94 1214.23,1072.68 1215.55,1074.42 1216.9,1076.13 1218.26,1077.84 1219.64,1079.53 1221.03,1081.21 1222.44,1082.88 1223.87,1084.53 1225.31,1086.16 1226.78,1087.78 1228.25,1089.39 1229.75,1090.98 1231.25,1092.56 1232.78,1094.12 1234.32,1095.67 1235.87,1097.2 1237.44,1098.71 1239.03,1100.21 1240.63,1101.69 1242.25,1103.16 1243.88,1104.61 1245.52,1106.05 1247.18,1107.46 1248.85,1108.87 1250.54,1110.25 1252.24,1111.62 1253.95,1112.97 1255.68,1114.3 1257.42,1115.62 1259.18,1116.92 1260.94,1118.2 1262.72,1119.46 1264.51,1120.71 1266.32,1121.94 1268.13,1123.14 1269.96,1124.34 1271.8,1125.51 1273.66,1126.66 1275.52,1127.8 1277.39,1128.92 1279.28,1130.01 1281.18,1131.09 1283.08,1132.15 1285,1133.2 1286.93,1134.22 1288.87,1135.22 1290.82,1136.2 1292.77,1137.17 1294.74,1138.11 1296.72,1139.04 1298.7,1139.94 1300.7,1140.82 1302.7,1141.69 1304.72,1142.53 1306.74,1143.36 1308.76,1144.16 1310.8,1144.95 1312.85,1145.71 1314.9,1146.45 1316.96,1147.18 1319.02,1147.88 1321.1,1148.56 1323.18,1149.22 1325.26,1149.86 1327.36,1150.48 1329.45,1151.07 1331.56,1151.65 1333.67,1152.21 1335.79,1152.74 1337.91,1153.25 1340.03,1153.75 1342.16,1154.22 1344.3,1154.67 1346.44,1155.09 1348.58,1155.5 1350.73,1155.89 1352.88,1156.25 1355.04,1156.59 1357.2,1156.91 1359.36,1157.21 1361.52,1157.49 1363.69,1157.74 1365.86,1157.98 1368.03,1158.19 1370.21,1158.38 1372.38,1158.55 1374.56,1158.7 1376.74,1158.82 1378.92,1158.92 1381.1,1159.01 1383.28,1159.07 1385.46,1159.1 1387.65,1159.12 1389.83,1159.11 1392.01,1159.09 1394.19,1159.04 1396.37,1158.97 1398.55,1158.87 1400.73,1158.76 1402.91,1158.62 1405.09,1158.46 1407.26,1158.28 1409.43,1158.08 1411.61,1157.86 1413.77,1157.61 1415.94,1157.35 1418.1,1157.06 1420.26,1156.75 1422.42,1156.42 1424.57,1156.06 1426.72,1155.69 1428.87,1155.29 1431.01,1154.87 1433.15,1154.43 1435.28,1153.97 1437.41,1153.49 1439.53,1152.99 1441.65,1152.46 1443.77,1151.92 1445.87,1151.35 1447.97,1150.76 1450.07,1150.16 1452.16,1149.53 1454.24,1148.88 1456.32,1148.21 1458.39,1147.51 1460.45,1146.8 1462.51,1146.07 1464.56,1145.31 1466.6,1144.54 1468.63,1143.75 1470.65,1142.93 1472.67,1142.1 1474.68,1141.24 1476.68,1140.37 1478.67,1139.47 1480.65,1138.56 1482.62,1137.62 1484.58,1136.67 1486.54,1135.69 1488.48,1134.7 1490.41,1133.69 1492.33,1132.65 1494.25,1131.6 1496.15,1130.53 1498.04,1129.44 1499.92,1128.34 1501.79,1127.21 1503.65,1126.06 1505.49,1124.9 1507.33,1123.72 1509.15,1122.52 1510.96,1121.3 1512.76,1120.06 1514.54,1118.81 1516.31,1117.53 1518.07,1116.24 1519.82,1114.93 1521.56,1113.61 1523.28,1112.27 1524.98,1110.91 1526.68,1109.53 1528.36,1108.14 1530.02,1106.73 1531.67,1105.3 1533.31,1103.86 1534.93,1102.4 1536.54,1100.92 1538.13,1099.43 1539.71,1097.92 1541.27,1096.4 1542.82,1094.86 1544.35,1093.31 1545.87,1091.74 1547.37,1090.15 1548.85,1088.55 1550.32,1086.94 1551.78,1085.31 1553.21,1083.67 1554.63,1082.01 1556.03,1080.34 1557.42,1078.65 1558.79,1076.95 1560.14,1075.24 1561.48,1073.51 1562.79,1071.77 1564.09,1070.02 1565.38,1068.25 1566.64,1066.48 1567.89,1064.68 1569.12,1062.88 1570.33,1061.07 1571.52,1059.24 1572.69,1057.4 1573.85,1055.55 1574.99,1053.68 1576.11,1051.81 1577.21,1049.93 1578.29,1048.03 1579.35,1046.12 1580.39,1044.21 1581.42,1042.28 1582.42,1040.34 1583.4,1038.39 1584.37,1036.44 1585.31,1034.47 1586.24,1032.49 1587.15,1030.51 1588.03,1028.51 1588.9,1026.51 1589.75,1024.5 1590.57,1022.48 1591.38,1020.45 1592.16,1018.42 1592.93,1016.37 1593.67,1014.32 1594.4,1012.26 1595.1,1010.2 1595.78,1008.12 1596.44,1006.04 1597.09,1003.96 1597.71,1001.87 1598.31,999.767 1598.88,997.663 1599.44,995.553 1599.98,993.438 1600.49,991.317 1600.99,989.191 1601.46,987.061 1601.91,984.926 1602.34,982.786 1602.75,980.642 1603.13,978.494 1603.5,976.343 1603.84,974.188 1604.17,972.029 1604.47,969.868 1604.74,967.703 1605,965.536 1605.24,963.367 1605.45,961.195 1605.64,959.021 1605.81,956.846 1605.96,954.668 1606.09,952.49 1606.19,950.31 1606.28,948.129 1606.34,945.948 1606.38,943.766 1606.4,941.584 " />
<polyline fill="none" vector-effect="none" points="1232.29,566.777 1232.28,564.595 1232.24,562.413 1232.19,560.231 1232.11,558.05 1232.01,555.87 1231.89,553.691 1231.75,551.513 1231.59,549.337 1231.4,547.163 1231.2,544.99 1230.97,542.82 1230.72,540.652 1230.45,538.487 1230.15,536.324 1229.84,534.165 1229.5,532.009 1229.14,529.856 1228.76,527.707 1228.36,525.562 1227.94,523.421 1227.49,521.284 1227.03,519.152 1226.54,517.025 1226.03,514.903 1225.5,512.786 1224.95,510.674 1224.38,508.568 1223.79,506.467 1223.17,504.373 1222.54,502.285 1221.88,500.204 1221.21,498.129 1220.51,496.061 1219.79,494 1219.06,491.946 1218.3,489.9 1217.52,487.861 1216.72,485.83 1215.9,483.808 1215.06,481.794 1214.2,479.788 1213.32,477.791 1212.42,475.803 1211.5,473.824 1210.56,471.854 1209.6,469.893 1208.62,467.943 1207.63,466.002 1206.61,464.072 1205.57,462.151 1204.52,460.241 1203.44,458.342 1202.35,456.454 1201.23,454.576 1200.1,452.71 1198.95,450.855 1197.78,449.012 1196.6,447.181 1195.39,445.361 1194.17,443.554 1192.93,441.759 1191.67,439.977 1190.39,438.207 1189.1,436.45 1187.79,434.706 1186.46,432.975 1185.11,431.258 1183.75,429.554 1182.37,427.864 1180.97,426.188 1179.55,424.526 1178.12,422.878 1176.68,421.245 1175.21,419.626 1173.73,418.022 1172.24,416.432 1170.73,414.858 1169.2,413.299 1167.66,411.755 1166.1,410.227 1164.53,408.715 1162.94,407.218 1161.33,405.737 1159.72,404.272 1158.08,402.824 1156.44,401.392 1154.78,399.976 1153.1,398.577 1151.41,397.195 1149.71,395.83 1147.99,394.482 1146.26,393.151 1144.52,391.838 1142.77,390.542 1141,389.264 1139.22,388.003 1137.42,386.761 1135.61,385.536 1133.8,384.33 1131.97,383.141 1130.12,381.971 1128.27,380.82 1126.4,379.687 1124.53,378.573 1122.64,377.478 1120.74,376.401 1118.83,375.344 1116.91,374.306 1114.98,373.287 1113.04,372.287 1111.09,371.307 1109.13,370.347 1107.17,369.406 1105.19,368.484 1103.2,367.583 1101.2,366.702 1099.2,365.84 1097.18,364.999 1095.16,364.177 1093.13,363.377 1091.1,362.596 1089.05,361.836 1087,361.096 1084.94,360.377 1082.87,359.678 1080.79,359.001 1078.71,358.344 1076.63,357.708 1074.53,357.092 1072.43,356.498 1070.33,355.925 1068.21,355.373 1066.1,354.842 1063.98,354.332 1061.85,353.843 1059.72,353.376 1057.58,352.93 1055.44,352.505 1053.3,352.102 1051.15,351.721 1048.99,351.361 1046.84,351.022 1044.68,350.705 1042.52,350.409 1040.35,350.136 1038.18,349.883 1036.01,349.653 1033.84,349.444 1031.67,349.257 1029.49,349.092 1027.31,348.948 1025.14,348.827 1022.96,348.727 1020.77,348.649 1018.59,348.593 1016.41,348.558 1014.23,348.545 1012.05,348.555 1009.86,348.586 1007.68,348.638 1005.5,348.713 1003.32,348.809 1001.14,348.928 998.965,349.068 996.788,349.229 994.614,349.413 992.441,349.618 990.271,349.845 988.103,350.094 985.937,350.364 983.774,350.656 981.615,350.97 979.458,351.305 977.305,351.662 975.156,352.04 973.011,352.44 970.869,352.861 968.732,353.304 966.6,353.767 964.472,354.253 962.35,354.759 960.232,355.287 958.12,355.835 956.013,356.405 953.913,356.996 951.818,357.608 949.729,358.241 947.647,358.895 945.572,359.569 943.503,360.264 941.441,360.98 939.387,361.717 937.34,362.473 935.301,363.251 933.27,364.049 931.247,364.867 929.232,365.705 927.225,366.563 925.227,367.441 923.239,368.34 921.259,369.258 919.288,370.195 917.327,371.153 915.376,372.13 913.434,373.126 911.503,374.142 909.582,375.177 907.671,376.232 905.771,377.305 903.882,378.397 902.003,379.509 900.136,380.638 898.281,381.787 896.437,382.954 894.604,384.139 892.784,385.343 890.976,386.565 889.18,387.804 887.396,389.062 885.625,390.337 883.867,391.631 882.123,392.941 880.391,394.269 878.672,395.614 876.968,396.977 875.277,398.356 873.599,399.752 871.936,401.165 870.287,402.595 868.653,404.04 867.032,405.503 865.427,406.981 863.837,408.475 862.261,409.985 860.701,411.511 859.156,413.052 857.626,414.609 856.112,416.181 854.614,417.768 853.132,419.37 851.666,420.986 850.217,422.617 848.783,424.263 847.366,425.923 845.966,427.597 844.583,429.284 843.216,430.986 841.867,432.701 840.535,434.43 839.22,436.171 837.923,437.926 836.643,439.694 835.381,441.474 834.137,443.267 832.911,445.073 831.703,446.89 830.513,448.72 829.342,450.561 828.189,452.414 827.055,454.278 825.939,456.154 824.842,458.041 823.764,459.938 822.706,461.846 821.666,463.765 820.645,465.694 819.644,467.633 818.663,469.582 817.7,471.541 816.758,473.509 815.835,475.487 814.932,477.473 814.049,479.469 813.186,481.474 812.343,483.486 811.52,485.508 810.718,487.537 809.935,489.574 809.174,491.619 808.432,493.672 807.711,495.732 807.011,497.799 806.332,499.873 805.673,501.953 805.036,504.04 804.419,506.133 803.823,508.233 803.248,510.338 802.694,512.449 802.161,514.565 801.65,516.687 801.159,518.813 800.69,520.945 800.243,523.081 799.817,525.221 799.412,527.365 799.028,529.514 798.666,531.666 798.326,533.821 798.007,535.98 797.71,538.142 797.435,540.307 797.181,542.474 796.949,544.644 796.738,546.817 796.549,548.991 796.382,551.167 796.237,553.344 796.114,555.523 796.012,557.703 795.932,559.884 795.874,562.065 795.838,564.247 795.824,566.429 795.831,568.612 795.86,570.794 795.911,572.976 795.984,575.157 796.079,577.337 796.195,579.516 796.334,581.694 796.494,583.87 796.676,586.045 796.879,588.218 797.104,590.389 797.351,592.557 797.62,594.723 797.91,596.886 798.222,599.045 798.556,601.202 798.911,603.355 799.287,605.505 799.685,607.651 800.105,609.792 800.546,611.93 801.008,614.062 801.491,616.19 801.996,618.314 802.522,620.432 803.069,622.544 803.637,624.651 804.227,626.753 804.837,628.848 805.468,630.937 806.12,633.019 806.793,635.095 807.486,637.165 808.2,639.227 808.935,641.282 809.69,643.329 810.466,645.369 811.262,647.401 812.079,649.425 812.915,651.44 813.772,653.447 814.649,655.446 815.545,657.435 816.462,659.416 817.398,661.387 818.354,663.349 819.329,665.301 820.324,667.243 821.339,669.176 822.372,671.098 823.425,673.009 824.497,674.91 825.588,676.8 826.697,678.68 827.826,680.547 828.973,682.404 830.138,684.249 831.322,686.082 832.524,687.904 833.745,689.713 834.983,691.51 836.239,693.294 837.513,695.066 838.805,696.825 840.114,698.571 841.441,700.304 842.785,702.023 844.146,703.729 845.524,705.421 846.919,707.1 848.33,708.764 849.758,710.414 851.203,712.05 852.664,713.671 854.141,715.278 855.634,716.869 857.142,718.446 858.667,720.008 860.207,721.554 861.762,723.085 863.333,724.6 864.919,726.099 866.519,727.582 868.135,729.05 869.765,730.501 871.409,731.935 873.068,733.354 874.741,734.755 876.427,736.14 878.128,737.508 879.842,738.858 881.57,740.192 883.31,741.508 885.064,742.807 886.831,744.088 888.61,745.351 890.402,746.597 892.207,747.824 894.023,749.033 895.852,750.225 897.692,751.398 899.544,752.552 901.407,753.688 903.282,754.805 905.168,755.903 907.065,756.982 908.972,758.043 910.89,759.084 912.818,760.106 914.756,761.109 916.705,762.092 918.663,763.056 920.63,764 922.607,764.924 924.593,765.829 926.588,766.714 928.592,767.578 930.604,768.423 932.625,769.247 934.653,770.051 936.69,770.835 938.734,771.599 940.786,772.342 942.846,773.064 944.912,773.766 946.985,774.447 949.065,775.107 951.152,775.747 953.245,776.365 955.344,776.963 957.448,777.539 959.559,778.095 961.675,778.629 963.796,779.142 965.922,779.634 968.053,780.105 970.188,780.554 972.328,780.982 974.472,781.389 976.62,781.774 978.772,782.138 980.927,782.48 983.086,782.8 985.248,783.099 987.413,783.376 989.58,783.632 991.75,783.866 993.922,784.078 996.096,784.268 998.271,784.437 1000.45,784.584 1002.63,784.709 1004.81,784.813 1006.99,784.894 1009.17,784.954 1011.35,784.992 1013.53,785.008 1015.72,785.002 1017.9,784.975 1020.08,784.926 1022.26,784.854 1024.44,784.761 1026.62,784.647 1028.8,784.51 1030.98,784.352 1033.15,784.172 1035.32,783.97 1037.49,783.746 1039.66,783.501 1041.83,783.234 1043.99,782.946 1046.15,782.636 1048.31,782.304 1050.46,781.95 1052.61,781.576 1054.76,781.179 1056.9,780.762 1059.04,780.322 1061.17,779.862 1063.3,779.38 1065.42,778.877 1067.54,778.353 1069.65,777.807 1071.76,777.241 1073.86,776.653 1075.96,776.045 1078.05,775.415 1080.13,774.765 1082.21,774.094 1084.28,773.402 1086.34,772.689 1088.4,771.956 1090.44,771.202 1092.48,770.428 1094.52,769.634 1096.54,768.819 1098.56,767.984 1100.57,767.129 1102.57,766.254 1104.56,765.359 1106.54,764.444 1108.51,763.509 1110.47,762.555 1112.42,761.581 1114.37,760.588 1116.3,759.575 1118.22,758.543 1120.14,757.492 1122.04,756.421 1123.93,755.332 1125.81,754.224 1127.68,753.097 1129.53,751.951 1131.38,750.787 1133.21,749.605 1135.04,748.404 1136.85,747.185 1138.65,745.948 1140.43,744.694 1142.2,743.421 1143.96,742.131 1145.71,740.823 1147.44,739.497 1149.16,738.155 1150.87,736.795 1152.57,735.419 1154.24,734.025 1155.91,732.615 1157.56,731.188 1159.2,729.745 1160.82,728.285 1162.43,726.81 1164.02,725.318 1165.6,723.81 1167.16,722.287 1168.71,720.748 1170.24,719.194 1171.76,717.625 1173.26,716.04 1174.74,714.441 1176.21,712.826 1177.66,711.198 1179.1,709.554 1180.52,707.897 1181.92,706.225 1183.31,704.539 1184.68,702.84 1186.03,701.127 1187.36,699.401 1188.68,697.661 1189.98,695.908 1191.26,694.142 1192.53,692.364 1193.78,690.573 1195.01,688.77 1196.22,686.954 1197.41,685.126 1198.58,683.287 1199.74,681.436 1200.88,679.573 1201.99,677.7 1203.09,675.815 1204.18,673.919 1205.24,672.012 1206.28,670.095 1207.3,668.168 1208.31,666.23 1209.29,664.283 1210.26,662.326 1211.2,660.359 1212.13,658.383 1213.04,656.398 1213.92,654.403 1214.79,652.4 1215.63,650.389 1216.46,648.369 1217.27,646.341 1218.05,644.305 1218.82,642.261 1219.56,640.209 1220.29,638.151 1220.99,636.085 1221.67,634.012 1222.33,631.933 1222.97,629.847 1223.59,627.754 1224.19,625.656 1224.77,623.552 1225.33,621.442 1225.87,619.326 1226.38,617.206 1226.87,615.08 1227.35,612.949 1227.8,610.814 1228.23,608.674 1228.64,606.531 1229.02,604.383 1229.39,602.231 1229.73,600.076 1230.05,597.918 1230.35,595.756 1230.63,593.592 1230.89,591.425 1231.13,589.255 1231.34,587.084 1231.53,584.91 1231.7,582.734 1231.85,580.557 1231.98,578.378 1232.08,576.199 1232.17,574.018 1232.23,571.836 1232.27,569.654 1232.29,567.472 " />
</g>

<g fill="#000000" fill-opacity="1" stroke="#000000" stroke-opacity="1" stroke-width="1.33333" stroke-linecap="butt" stroke-linejoin="miter" stroke-miterlimit="2" transform="matrix(0.388571,0,0,0.386095,-280.984,-41.0991)"
font-family="Helvetica" font-size="26" font-weight="400" font-style="normal" 
>
<polyline fill="none" vector-effect="none" points="1886.98,184.666 1886.98,200.666 " />
<polyline fill="none" vector-effect="none" points="1878.98,192.666 1894.98,192.666 " />
<polyline fill="none" vector-effect="none" points="1881.32,187.009 1892.64,198.322 " />
<polyline fill="none" vector-effect="none" points="1881.32,198.322 1892.64,187.009 " />
<polyline fill="none" vector-effect="none" points="858.175,1213.47 858.175,1229.47 " />
<polyline fill="none" vector-effect="none" points="850.175,1221.47 866.175,1221.47 " />
</g>

<g fill="none" stroke="#3baa32" stroke-opacity="1" stroke-width="3.73333" stroke-linecap="butt" stroke-linejoin="round" transform="matrix(0.388571,0,0,0.386095,-280.984,-41.0991)"
font-family="Helvetica" font-size="26" font-weight="400" font-style="normal" 
>
<polyline fill="none" vector-effect="none" points="858.175,1221.47 858.616,1221.03 859.499,1220.15 860.824,1218.83 862.587,1217.07 864.792,1214.86 866.993,1212.65 869.195,1210.45 871.399,1208.24 873.604,1206.04 875.811,1203.84 878.019,1201.64 880.223,1199.43 882.428,1197.23 884.629,1195.02 886.83,1192.81 889.035,1190.61 891.239,1188.4 893.447,1186.2 895.654,1184 897.859,1181.79 900.063,1179.59 902.265,1177.38 904.466,1175.18 906.671,1172.97 908.875,1170.77 911.083,1168.56 913.29,1166.36 915.495,1164.16 917.699,1161.95 919.9,1159.75 922.102,1157.54 924.306,1155.33 926.511,1153.13 928.718,1150.93 930.926,1148.73 933.13,1146.52 935.335,1144.32 937.536,1142.11 939.738,1139.9 941.942,1137.7 944.147,1135.49 946.354,1133.29 948.562,1131.09 950.766,1128.89 952.971,1126.68 955.172,1124.48 957.367,1122.26 959.541,1120.03 961.683,1117.76 963.783,1115.46 965.832,1113.11 967.818,1110.7 969.735,1108.25 971.58,1105.73 973.347,1103.16 975.03,1100.54 976.632,1097.87 978.147,1095.14 979.578,1092.37 980.919,1089.56 982.173,1086.7 983.335,1083.81 984.408,1080.88 985.394,1077.92 986.297,1074.94 987.112,1071.93 987.843,1068.9 988.493,1065.85 989.067,1062.79 989.568,1059.71 989.999,1056.62 990.366,1053.53 990.673,1050.42 990.914,1047.32 991.095,1044.2 991.219,1041.09 991.29,1037.97 991.314,1034.85 991.295,1031.74 991.236,1028.62 991.151,1025.5 991.062,1022.39 990.981,1019.27 990.931,1016.15 990.925,1013.04 990.966,1009.92 991.068,1006.8 991.236,1003.69 991.473,1000.58 991.784,997.479 992.172,994.386 992.643,991.304 993.199,988.236 993.845,985.186 994.576,982.156 995.396,979.148 996.299,976.164 997.281,973.205 998.345,970.274 999.487,967.373 1000.7,964.502 1001.99,961.664 1003.35,958.859 1004.78,956.087 1006.27,953.348 1007.82,950.644 1009.43,947.977 1011.1,945.343 1012.82,942.743 1014.59,940.174 1016.4,937.641 1018.27,935.14 1020.17,932.672 1022.11,930.232 1024.09,927.821 1026.09,925.434 1028.13,923.07 1030.19,920.731 1032.28,918.416 1034.39,916.121 1036.52,913.844 1038.67,911.587 1040.84,909.349 1043.02,907.127 1045.22,904.916 1047.43,902.721 1049.66,900.538 1051.9,898.364 1054.14,896.197 1056.39,894.039 1058.64,891.888 1060.91,889.746 1063.18,887.61 1065.45,885.477 1067.73,883.351 1070.02,881.228 1072.3,879.105 1074.59,876.985 1076.87,874.866 1079.16,872.749 1081.45,870.632 1083.74,868.513 1086.02,866.393 1088.3,864.27 1090.59,862.147 1092.87,860.021 1095.15,857.894 1097.42,855.765 1099.7,853.636 1101.98,851.503 1104.25,849.37 1106.52,847.235 1108.79,845.093 1111.05,842.947 1113.31,840.802 1115.57,838.654 1117.82,836.499 1120.07,834.341 1122.32,832.184 1124.57,830.023 1126.81,827.855 1129.05,825.685 1131.29,823.515 1133.52,821.341 1135.76,819.168 1137.99,816.991 1140.22,814.814 1142.45,812.635 1144.68,810.455 1146.91,808.272 1149.13,806.089 1151.35,803.903 1153.58,801.718 1155.8,799.529 1158.02,797.339 1160.23,795.147 1162.45,792.955 1164.66,790.76 1166.88,788.565 1169.09,786.366 1171.3,784.168 1173.51,781.967 1175.71,779.765 1177.92,777.561 1180.12,775.356 1182.32,773.149 1184.53,770.941 1186.72,768.731 1188.92,766.52 1191.12,764.306 1193.31,762.093 1195.51,759.876 1197.7,757.659 1199.89,755.446 1202.09,753.232 1204.29,751.021 1206.48,748.811 1208.69,746.603 1210.89,744.396 1213.09,742.185 1215.28,739.974 1217.49,737.767 1219.69,735.559 1221.88,733.349 1224.08,731.138 1226.28,728.93 1228.49,726.723 1230.68,724.512 1232.88,722.302 1235.08,720.094 1237.29,717.886 1239.49,715.682 1241.69,713.478 1243.9,711.27 1246.1,709.062 1248.3,706.858 1250.51,704.654 1252.71,702.446 1254.91,700.238 1257.11,698.034 1259.32,695.829 1261.52,693.622 1263.72,691.414 1265.93,689.21 1268.13,687.005 1270.34,684.804 1272.54,682.603 1274.75,680.398 1276.95,678.194 1279.16,675.992 1281.37,673.791 1283.57,671.586 1285.78,669.382 1287.99,667.181 1290.19,664.979 1292.4,662.775 1294.6,660.57 1296.81,658.369 1299.02,656.167 1301.22,653.963 1303.43,651.758 1305.63,649.557 1307.84,647.356 1310.05,645.151 1312.25,642.947 1314.46,640.745 1316.66,638.544 1318.87,636.339 1321.07,634.135 1323.28,631.934 1325.49,629.732 1327.7,627.534 1329.91,625.336 1332.12,623.134 1334.33,620.933 1336.54,618.734 1338.75,616.536 1340.95,614.335 1343.16,612.133 1345.37,609.935 1347.58,607.737 1349.79,605.535 1352,603.334 1354.21,601.136 1356.42,598.937 1358.63,596.736 1360.83,594.535 1363.04,592.336 1365.26,590.138 1367.46,587.937 1369.67,585.735 1371.88,583.537 1374.09,581.339 1376.3,579.137 1378.51,576.936 1380.72,574.737 1382.93,572.539 1385.14,570.338 1387.34,568.136 1389.55,565.938 1391.76,563.74 1393.97,561.538 1396.18,559.337 1398.39,557.139 1400.6,554.94 1402.81,552.739 1405.02,550.538 1407.23,548.339 1409.44,546.141 1411.65,543.946 1413.86,541.751 1416.08,539.552 1418.29,537.354 1420.5,535.159 1422.71,532.964 1424.92,530.765 1427.13,528.567 1429.35,526.372 1431.56,524.176 1433.77,521.978 1435.98,519.78 1438.2,517.585 1440.41,515.389 1442.62,513.191 1444.83,510.993 1447.05,508.798 1449.26,506.602 1451.48,504.41 1453.7,502.224 1455.92,500.041 1458.16,497.865 1460.4,495.698 1462.64,493.537 1464.9,491.385 1467.17,489.246 1469.45,487.117 1471.74,485 1474.03,482.893 1476.34,480.799 1478.66,478.715 1480.99,476.643 1483.33,474.581 1485.68,472.533 1488.04,470.494 1490.41,468.469 1492.79,466.453 1495.17,464.444 1497.56,462.445 1499.96,460.453 1502.37,458.471 1504.78,456.502 1507.22,454.557 1509.68,452.646 1512.18,450.773 1514.71,448.95 1517.27,447.179 1519.88,445.474 1522.54,443.839 1525.23,442.278 1527.97,440.789 1530.75,439.378 1533.57,438.049 1536.43,436.806 1539.33,435.649 1542.25,434.556 1545.2,433.549 1548.16,432.592 1551.16,431.722 1554.17,430.903 1557.2,430.172 1560.24,429.492 1563.29,428.85 1566.36,428.285 1569.43,427.758 1572.51,427.267 1575.59,426.813 1578.68,426.36 1581.77,425.945 1584.86,425.531 1587.95,425.155 1591.05,424.78 1594.15,424.443 1597.25,424.106 1600.35,423.791 1603.45,423.459 1606.55,423.122 1609.64,422.768 1612.74,422.384 1615.83,421.965 1618.91,421.508 1621.99,420.998 1625.05,420.434 1628.11,419.809 1631.15,419.12 1634.17,418.364 1637.18,417.544 1640.17,416.658 1643.14,415.701 1646.08,414.677 1649,413.593 1651.9,412.443 1654.77,411.233 1657.62,409.959 1660.44,408.626 1663.23,407.237 1665.99,405.791 1668.72,404.291 1671.43,402.742 1674.1,401.14 1676.75,399.49 1679.37,397.795 1681.95,396.054 1684.51,394.269 1687.04,392.446 1689.54,390.587 1692.01,388.69 1694.46,386.758 1696.88,384.796 1699.28,382.807 1701.66,380.789 1704.01,378.743 1706.35,376.675 1708.66,374.587 1710.96,372.477 1713.23,370.348 1715.49,368.202 1717.75,366.045 1719.98,363.871 1722.2,361.685 1724.42,359.49 1726.62,357.283 1728.81,355.066 1731,352.843 1733.17,350.611 1735.34,348.373 1737.51,346.132 1739.67,343.885 1741.83,341.634 1743.98,339.378 1746.13,337.119 1748.28,334.86 1750.42,332.598 1752.57,330.336 1754.71,328.07 1756.85,325.805 1758.99,323.537 1761.13,321.269 1763.27,319.004 1765.41,316.739 1767.56,314.476 1769.7,312.214 1771.85,309.955 1774,307.696 1776.15,305.44 1778.3,303.184 1780.46,300.93 1782.61,298.677 1784.77,296.427 1786.93,294.177 1789.09,291.93 1791.25,289.683 1793.42,287.438 1795.58,285.194 1797.75,282.953 1799.91,280.712 1802.08,278.474 1804.25,276.236 1806.43,274.001 1808.6,271.766 1810.78,269.534 1812.95,267.302 1815.13,265.073 1817.31,262.844 1819.5,260.618 1821.68,258.392 1823.87,256.169 1826.05,253.947 1828.24,251.727 1830.43,249.507 1832.62,247.29 1834.81,245.073 1837.01,242.86 1838.77,241.089 1840.96,238.878 1842.72,237.11 1844.83,235 1846.49,233.332 1848.39,231.416 1849.86,229.943 1851.67,228.127 1853.04,226.754 1854.65,225.133 1855.92,223.856 1857.44,222.335 1858.71,221.059 1860.03,219.733 1861.2,218.554 1862.42,217.328 1863.5,216.248 1864.62,215.118 1865.6,214.136 1866.63,213.106 1867.51,212.223 1868.44,211.289 1869.32,210.405 1870.15,209.571 1870.93,208.786 1871.66,208.049 1872.35,207.362 1872.98,206.724 1873.57,206.135 1874.21,205.497 1874.79,204.907 1875.33,204.367 1875.82,203.877 1876.36,203.336 1876.85,202.845 1877.29,202.404 1877.68,202.011 1878.14,201.547 1878.55,201.133 1878.93,200.752 1879.29,200.387 1879.65,200.028 1880.01,199.672 1880.27,199.406 1880.58,199.092 1880.83,198.839 1881.07,198.608 1881.29,198.384 1881.51,198.162 1881.73,197.94 1881.95,197.719 1882.17,197.498 1882.39,197.278 1882.61,197.057 1882.76,196.909 1882.95,196.713 1883.09,196.571 1883.29,196.377 1883.43,196.235 1883.56,196.106 1883.68,195.979 1883.81,195.852 1883.94,195.726 1884.06,195.6 1884.19,195.474 1884.31,195.347 1884.44,195.221 1884.56,195.095 1884.63,195.032 1884.74,194.919 " />
</g>

<g fill="none" stroke="#0072bd" stroke-opacity="1" stroke-width="3.73333" stroke-linecap="butt" stroke-linejoin="round" transform="matrix(0.388571,0,0,0.386095,-280.984,-41.0991)"
font-family="Helvetica" font-size="26" font-weight="400" font-style="normal" 
>
<polyline fill="none" vector-effect="none" points="826.999,1221.47 827.44,1220.99 828.323,1220.11 829.648,1218.83 831.411,1217.07 833.616,1214.91 835.817,1212.7 838.019,1210.45 840.223,1208.24 842.428,1205.99 844.635,1203.79 846.843,1201.64 849.047,1199.43 851.252,1197.27 853.453,1195.06 855.654,1192.81 857.859,1190.61 860.063,1188.36 862.271,1186.16 864.478,1184 866.683,1181.79 868.887,1179.63 871.089,1177.43 873.29,1175.18 875.495,1172.97 877.699,1170.72 879.907,1168.52 882.114,1166.36 884.319,1164.16 886.523,1162 888.725,1159.79 890.926,1157.54 893.13,1155.33 895.335,1153.09 897.542,1150.89 899.75,1148.73 901.954,1146.52 904.159,1144.36 906.36,1142.15 908.562,1139.9 910.766,1137.7 912.971,1135.45 915.178,1133.25 917.386,1131.09 919.59,1128.89 921.795,1126.73 923.996,1124.61 926.194,1122.7 928.377,1120.9 930.54,1119.2 932.68,1117.59 934.796,1116.06 936.877,1114.53 938.92,1112.97 940.924,1111.4 942.889,1109.82 944.791,1108.12 946.652,1106.42 948.444,1104.61 950.194,1102.79 951.869,1100.87 953.501,1098.94 955.053,1096.93 956.522,1094.82 957.908,1092.64 959.254,1090.45 960.513,1088.19 961.685,1085.86 962.77,1083.47 963.769,1081.01 964.682,1078.49 965.513,1075.92 966.262,1073.3 966.987,1070.7 967.63,1068.05 968.19,1065.35 968.672,1062.62 969.077,1059.85 969.409,1057.04 969.669,1054.19 969.8,1051.26 969.746,1048.17 969.594,1044.99 969.293,1041.67 968.933,1038.24 968.59,1034.79 968.21,1031.23 967.871,1027.63 967.579,1023.99 967.341,1020.32 967.163,1016.6 967.053,1012.85 967.018,1009.06 967.065,1005.23 967.246,1001.45 967.512,997.63 967.91,993.861 968.432,990.142 969.035,986.4 969.759,982.716 970.597,979.092 971.511,975.451 972.534,971.875 973.661,968.368 974.883,964.931 976.17,961.48 977.549,958.102 979.013,954.799 980.554,951.569 982.166,948.414 983.828,945.245 985.557,942.152 987.348,939.134 989.194,936.19 991.09,933.318 993.029,930.516 995.006,927.782 997.012,925.027 999.053,922.341 1001.13,919.721 1003.23,917.165 1005.35,914.584 1007.49,912.066 1009.66,909.611 1011.85,907.214 1014.05,904.785 1016.26,902.416 1018.49,900.103 1020.72,897.842 1022.97,895.544 1025.22,893.299 1027.48,891.017 1029.75,888.788 1032.02,886.609 1034.3,884.389 1036.58,882.22 1038.86,880.097 1041.15,877.93 1043.43,875.81 1045.72,873.647 1048.01,871.53 1050.3,869.457 1052.58,867.338 1054.87,865.261 1057.15,863.138 1059.43,861.059 1061.71,858.932 1063.99,856.85 1066.27,854.72 1068.54,852.635 1070.82,850.502 1073.09,848.413 1075.36,846.364 1077.62,844.266 1079.88,842.12 1082.14,840.019 1084.4,837.957 1086.65,835.846 1088.9,833.688 1091.15,831.574 1093.4,829.5 1095.64,827.377 1097.88,825.206 1100.11,823.079 1102.35,820.906 1104.58,818.776 1106.82,816.599 1109.05,814.466 1111.28,812.286 1113.51,810.15 1115.73,807.967 1117.96,805.828 1120.18,803.642 1122.4,801.5 1124.62,799.311 1126.84,797.165 1129.06,794.973 1131.27,792.825 1133.49,790.629 1135.7,788.478 1137.91,786.279 1140.12,784.125 1142.33,781.923 1144.54,779.765 1146.74,777.561 1148.95,775.4 1151.15,773.192 1153.35,771.028 1168.04,768.783 1170.86,766.596 1173.67,764.38 1176.46,762.187 1179.23,759.967 1181.98,757.725 1184.72,755.509 1187.43,753.273 1190.14,751.061 1192.83,748.83 1195.5,746.621 1198.15,744.431 1200.78,742.219 1203.38,739.991 1205.97,737.783 1208.54,735.59 1211.07,733.379 1213.58,731.153 1216.07,728.945 1218.54,726.751 1220.98,724.539 1223.38,722.315 1225.77,720.107 1228.12,717.886 1230.45,715.682 1232.76,713.49 1235.03,711.282 1237.27,709.062 1239.48,706.858 1241.67,704.666 1243.82,702.458 1245.95,700.238 1248.04,698.034 1250.11,695.842 1252.15,693.635 1254.16,691.414 1256.15,689.21 1258.11,686.991 1260.04,684.79 1261.95,682.603 1263.84,680.398 1265.69,678.178 1267.53,675.976 1269.35,673.791 1271.14,671.586 1272.91,669.364 1274.66,667.162 1276.39,664.979 1278.1,662.775 1279.78,660.549 1281.46,658.347 1283.12,656.167 1284.76,653.963 1286.38,651.735 1287.98,649.532 1289.58,647.356 1278.87,645.151 1281.07,642.903 1283.28,640.702 1285.49,638.544 1287.69,636.339 1289.9,634.091 1292.11,631.89 1294.31,629.645 1296.52,627.447 1298.73,625.292 1300.94,623.091 1303.15,620.846 1305.36,618.647 1307.57,616.493 1309.78,614.291 1311.99,612.046 1314.2,609.848 1316.41,607.693 1318.61,605.492 1320.82,603.247 1323.03,601.049 1325.24,598.894 1327.45,596.692 1329.66,594.448 1331.87,592.249 1334.08,590.094 1336.29,587.893 1338.49,585.648 1340.71,583.45 1342.92,581.295 1345.12,579.094 1347.33,576.849 1349.54,574.65 1351.75,572.496 1353.96,570.294 1356.17,568.049 1358.38,565.851 1360.59,563.696 1362.8,561.495 1365,559.25 1367.21,557.052 1369.42,554.897 1371.63,552.695 1373.84,550.451 1376.05,548.252 1378.26,546.01 1380.48,543.815 1382.69,541.663 1384.9,539.465 1387.11,537.223 1389.32,535.028 1391.54,532.876 1393.75,530.678 1395.96,528.436 1398.17,526.241 1400.39,524.089 1402.6,521.891 1404.81,519.649 1407.02,517.454 1409.23,515.302 1411.45,513.104 1413.66,510.862 1415.87,508.667 1418.08,506.428 1420.3,504.149 1422.52,501.92 1424.75,499.65 1426.98,497.343 1429.23,495.088 1431.48,492.797 1433.74,490.471 1436.01,488.202 1438.29,485.898 1440.59,483.651 1442.89,481.37 1445.21,479.146 1447.54,476.887 1449.88,474.686 1452.23,472.45 1454.59,470.271 1456.96,468.059 1459.34,465.903 1461.72,463.801 1464.12,461.662 1466.52,459.576 1468.93,457.454 1471.35,455.298 1473.8,453.027 1476.29,450.649 1478.82,448.264 1481.4,445.789 1484.04,443.322 1486.76,440.783 1489.55,438.27 1492.42,435.791 1495.34,433.434 1498.34,431.114 1501.41,428.838 1504.57,426.612 1507.78,424.525 1510.95,422.73 1514.26,420.811 1517.45,419.337 1520.84,417.573 1524.09,416.247 1527.57,414.641 1530.87,413.467 1534.13,412.457 1537.62,411.165 1540.91,410.278 1544.18,409.469 1547.49,408.661 1550.58,408.208 1553.9,407.442 1556.99,407.027 1560.32,406.303 1563.41,405.927 1566.75,405.245 1569.85,404.908 1573.09,404.402 1576.08,404.222 1579.15,403.924 1582.14,403.723 1585.05,403.609 1587.93,403.5 1590.78,403.395 1593.56,403.359 1596.31,403.313 1599.04,403.254 1601.74,403.177 1604.41,403.082 1607.11,402.889 1609.78,402.678 1612.42,402.446 1615.08,402.112 1617.74,401.68 1620.38,401.231 1623.03,400.684 1625.65,400.122 1628.26,399.46 1630.88,398.702 1633.47,397.935 1636.06,397.073 1638.64,396.117 1641.19,395.157 1643.73,394.106 1646.26,392.965 1648.77,391.825 1651.26,390.597 1653.73,389.285 1656.19,387.891 1658.63,386.507 1661.05,385.042 1663.46,383.5 1665.84,381.884 1668.21,380.286 1670.56,378.614 1672.89,376.873 1675.21,375.065 1677.51,373.282 1679.8,371.433 1682.07,369.521 1684.33,367.55 1686.57,365.609 1688.81,363.61 1691.03,361.555 1693.24,359.534 1695.44,357.457 1697.64,355.327 1699.82,353.235 1702,351.09 1704.17,348.895 1706.34,346.741 1708.5,344.537 1710.66,342.374 1712.81,340.162 1714.96,337.903 1717.11,335.687 1719.26,333.425 1721.4,331.206 1723.55,328.941 1725.69,326.719 1727.83,324.451 1729.97,322.139 1732.11,319.874 1734.25,317.566 1736.39,315.303 1738.54,312.998 1740.69,310.738 1742.83,308.436 1744.99,306.18 1747.14,303.88 1749.29,301.627 1751.44,299.33 1753.6,297.08 1755.76,294.786 1757.92,292.539 1760.08,290.248 1762.24,288.004 1764.41,285.717 1766.57,283.476 1768.74,281.191 1770.91,278.953 1773.08,276.671 1775.26,274.436 1777.43,272.158 1779.6,269.926 1781.78,267.65 1783.96,265.421 1786.14,263.149 1788.32,260.923 1790.5,258.653 1792.69,256.431 1794.88,254.164 1797.07,251.944 1799.25,249.681 1801.45,247.464 1803.64,245.204 1805.83,242.99 1807.59,241.176 1809.79,238.965 1811.55,237.153 1813.65,235.044 1815.31,233.419 1817.22,231.503 1818.68,229.986 1820.49,228.171 1821.86,226.841 1823.48,225.22 1824.75,223.899 1826.26,222.378 1827.53,221.146 1828.85,219.82 1830.03,218.598 1831.25,217.371 1832.33,216.335 1833.45,215.205 1834.43,214.18 1835.45,213.149 1836.33,212.31 1837.26,211.376 1838.14,210.449 1838.97,209.615 1839.76,208.873 1840.49,208.136 1841.17,207.405 1841.81,206.767 1842.4,206.222 1843.03,205.584 1843.62,204.951 1844.15,204.411 1844.64,203.964 1845.18,203.424 1845.67,202.889 1846.11,202.447 1846.5,202.098 1846.96,201.634 1847.38,201.176 1847.75,200.796 1848.12,200.474 1848.48,200.115 1848.83,199.715 1849.09,199.45 1849.41,199.179 1849.66,198.927 1849.89,198.651 1850.11,198.427 1850.33,198.249 1850.55,198.027 1850.77,197.763 1850.99,197.542 1851.21,197.365 1851.43,197.144 1851.58,196.953 1851.78,196.756 1851.92,196.658 1852.11,196.464 1852.25,196.279 1852.38,196.149 1852.51,196.066 1852.63,195.939 1852.76,195.769 1852.89,195.643 1853.01,195.561 1853.14,195.434 1853.26,195.264 1853.39,195.138 1853.45,195.119 1853.56,195.006 " />
</g>

<g fill="none" stroke="#d95319" stroke-opacity="1" stroke-width="3.73333" stroke-linecap="butt" stroke-linejoin="round" transform="matrix(0.388571,0,0,0.386095,-280.984,-41.0991)"
font-family="Helvetica" font-size="26" font-weight="400" font-style="normal" 
>
<polyline fill="none" vector-effect="none" points="858.175,1252.65 858.573,1252.21 859.456,1251.33 860.824,1250.01 862.587,1248.24 864.835,1246.04 867.037,1243.83 869.195,1241.62 871.399,1239.42 873.56,1237.21 875.768,1235.01 878.019,1232.81 880.223,1230.61 882.471,1228.4 884.672,1226.19 886.83,1223.99 889.035,1221.78 891.196,1219.58 893.403,1217.38 895.654,1215.18 897.859,1212.97 900.107,1210.77 902.308,1208.56 904.466,1206.35 906.671,1204.15 908.832,1201.94 911.039,1199.74 913.29,1197.54 915.495,1195.33 917.743,1193.13 919.944,1190.92 922.102,1188.72 924.306,1186.51 926.467,1184.31 928.675,1182.1 930.926,1179.9 933.13,1177.7 935.378,1175.49 937.58,1173.29 939.738,1171.08 941.942,1168.88 944.103,1166.67 946.311,1164.47 948.562,1162.27 950.766,1160.06 953.014,1157.86 955.303,1155.65 957.803,1153.43 960.411,1151.19 963.119,1148.9 965.915,1146.56 968.788,1144.14 971.639,1141.65 974.462,1139.06 977.251,1136.39 979.999,1133.62 982.614,1130.78 985.183,1127.85 987.615,1124.84 989.995,1121.76 992.234,1118.61 994.415,1115.37 996.452,1112.09 998.347,1108.77 1000.11,1105.41 1001.81,1101.98 1003.37,1098.53 1004.8,1095.06 1006.11,1091.58 1007.29,1088.09 1008.35,1084.6 1009.3,1081.11 1010.14,1077.63 1010.94,1074.11 1011.65,1070.6 1012.24,1067.11 1012.75,1063.64 1013.17,1060.19 1013.5,1056.76 1013.75,1053.36 1013.87,1050.06 1013.82,1046.91 1013.67,1043.86 1013.38,1040.96 1013.02,1038.15 1012.68,1035.37 1012.28,1032.67 1011.9,1030 1011.54,1027.35 1011.21,1024.71 1010.91,1022.1 1010.64,1019.5 1010.4,1016.93 1010.2,1014.37 1010.11,1011.79 1010.05,1009.22 1010.11,1006.63 1010.28,1004.03 1010.48,1001.45 1010.79,998.86 1011.21,996.263 1011.65,993.692 1012.2,991.12 1012.86,988.549 1013.62,985.982 1014.4,983.444 1015.28,980.915 1016.26,978.397 1017.33,975.891 1018.49,973.399 1019.66,970.935 1020.92,968.488 1022.26,966.059 1023.69,963.648 1025.2,961.255 1026.78,958.88 1028.44,956.521 1030.08,954.184 1031.8,951.865 1033.58,949.564 1035.43,947.279 1037.26,945.011 1039.15,942.76 1041.1,940.524 1043.11,938.302 1045.09,936.092 1047.13,933.895 1049.23,931.711 1051.37,929.536 1053.48,927.366 1055.65,925.207 1057.77,923.052 1059.95,920.907 1062.18,918.77 1064.37,916.634 1066.6,914.507 1068.89,912.384 1071.12,910.259 1073.41,908.139 1075.65,906.018 1077.94,903.901 1080.27,901.786 1082.56,899.666 1084.89,897.548 1087.17,895.425 1089.5,893.304 1091.78,891.177 1094.1,889.053 1096.38,886.923 1098.7,884.795 1100.98,882.663 1103.29,880.532 1105.65,878.398 1107.96,876.258 1110.22,874.112 1112.53,871.968 1114.87,869.822 1117.17,867.668 1119.42,865.51 1121.71,863.354 1124.05,861.194 1126.33,859.028 1128.57,856.857 1130.85,854.688 1133.09,852.514 1135.37,850.341 1137.6,848.165 1139.87,845.988 1142.1,843.809 1144.38,841.63 1146.6,839.447 1148.87,837.264 1151.09,835.078 1153.36,832.893 1155.58,830.704 1157.84,828.515 1160.06,826.323 1162.32,824.131 1164.53,821.936 1166.79,819.741 1169,817.542 1171.26,815.344 1173.46,813.143 1175.71,810.941 1177.92,808.737 1180.17,806.532 1182.37,804.325 1184.61,802.117 1186.78,787.417 1189,784.579 1191.19,781.757 1193.41,778.946 1195.6,776.153 1197.76,773.379 1199.96,770.622 1202.13,767.885 1204.33,765.166 1206.5,762.469 1208.7,759.791 1210.92,757.131 1213.12,754.491 1215.3,751.875 1217.5,749.282 1219.72,746.711 1221.92,744.161 1224.1,741.638 1226.3,739.141 1228.51,736.669 1230.71,734.221 1232.9,731.801 1235.1,729.411 1237.29,727.048 1239.49,724.717 1241.71,722.415 1243.91,720.138 1246.1,717.891 1248.3,715.676 1250.52,713.491 1252.72,711.331 1254.91,709.201 1257.11,707.103 1259.33,705.033 1261.53,702.989 1263.72,700.973 1265.93,698.987 1268.12,697.028 1270.32,695.098 1272.54,693.193 1274.75,691.31 1276.94,689.453 1279.14,687.622 1281.37,685.811 1283.57,684.021 1285.76,682.254 1287.97,680.51 1290.19,678.782 1292.4,677.074 1294.58,675.387 1296.79,673.718 1299.02,672.064 1301.22,670.426 1303.4,668.809 1305.61,667.206 1307.84,665.614 1310.05,676.327 1312.21,674.123 1314.41,671.921 1316.66,669.72 1318.87,667.515 1321.03,665.311 1323.24,663.11 1325.4,660.908 1327.61,658.71 1329.87,656.512 1332.07,654.31 1334.24,652.109 1336.45,649.91 1338.7,647.712 1340.91,645.511 1343.07,643.309 1345.29,641.111 1347.54,638.913 1349.75,636.711 1351.91,634.51 1354.12,632.312 1356.38,630.113 1358.58,627.912 1360.75,625.71 1362.96,623.512 1365.21,621.314 1367.42,619.113 1369.58,616.911 1371.79,614.713 1374.05,612.515 1376.26,610.313 1378.42,608.112 1380.63,605.913 1382.88,603.715 1385.09,601.514 1387.26,599.312 1389.47,597.114 1391.72,594.916 1393.93,592.714 1396.09,590.513 1398.3,588.315 1400.56,586.116 1402.76,583.915 1404.93,581.713 1407.14,579.515 1409.31,577.317 1411.52,575.121 1413.78,572.926 1415.99,570.728 1418.16,568.53 1420.37,566.334 1422.63,564.139 1424.84,561.941 1427,559.743 1429.22,557.547 1431.47,555.352 1433.69,553.154 1435.85,550.956 1438.07,548.76 1440.32,546.565 1442.53,544.367 1444.7,542.168 1446.91,539.973 1449.08,537.778 1451.21,535.585 1453.39,533.399 1455.53,531.215 1457.63,529.036 1459.79,526.868 1461.9,524.704 1463.99,522.548 1466.12,520.405 1468.23,518.269 1470.39,516.147 1472.51,514.032 1474.69,511.931 1476.83,509.837 1479.03,507.758 1481.2,505.684 1483.42,503.627 1485.6,501.575 1487.84,499.539 1490.13,497.516 1492.39,495.496 1494.69,493.489 1496.96,491.484 1499.19,489.485 1501.31,487.483 1503.31,485.487 1505.3,483.513 1507.19,481.548 1509.08,479.613 1510.87,477.692 1512.68,475.806 1514.49,473.958 1516.39,472.173 1518.3,470.426 1520.21,468.718 1522.14,467.051 1524.15,465.461 1526.41,464.022 1528.5,462.538 1530.99,461.297 1533.15,459.912 1535.68,458.786 1537.9,457.501 1540.49,456.494 1543.21,455.602 1545.61,454.524 1548.35,453.735 1551.14,453.006 1553.9,452.282 1556.99,451.829 1559.76,451.14 1562.85,450.725 1565.63,450.071 1568.72,449.695 1571.51,449.076 1574.61,448.74 1577.54,448.266 1580.78,448.061 1583.91,447.756 1587.15,447.528 1590.48,447.362 1593.85,447.19 1597.26,447.007 1600.76,446.857 1604.3,446.673 1607.87,446.449 1611.48,446.178 1615.11,445.854 1618.7,445.428 1622.31,444.947 1625.96,444.406 1629.55,443.759 1633.08,443.015 1636.64,442.213 1640.14,441.316 1643.66,440.362 1647.12,439.314 1650.51,438.18 1653.93,436.993 1657.27,435.723 1660.55,434.377 1663.84,432.981 1667.07,431.512 1670.22,429.975 1673.4,428.394 1676.5,426.749 1679.52,425.044 1682.48,423.287 1685.46,421.495 1688.37,419.652 1691.2,417.764 1693.97,415.836 1696.76,413.881 1699.49,411.889 1702.14,409.863 1704.74,407.809 1707.36,405.736 1709.91,403.636 1712.41,401.513 1714.84,399.372 1717.31,397.218 1719.72,395.046 1722.07,392.861 1724.46,390.666 1726.79,388.458 1729.07,386.241 1731.39,384.016 1733.65,381.783 1735.87,379.544 1738.12,377.302 1740.32,375.054 1742.57,372.802 1744.76,370.544 1746.91,368.285 1749.1,366.025 1751.25,363.763 1753.44,361.499 1755.58,359.234 1757.77,356.968 1759.9,354.7 1762,352.433 1764.14,350.168 1766.24,347.904 1768.39,345.641 1770.49,343.38 1772.64,341.121 1774.74,338.863 1776.89,336.607 1779,334.352 1781.16,332.099 1783.27,329.846 1785.42,327.596 1787.54,325.347 1789.7,323.1 1791.82,320.853 1793.98,318.609 1796.1,316.366 1798.27,314.125 1800.39,311.884 1802.56,309.646 1804.69,307.409 1806.86,305.174 1808.99,302.939 1811.17,300.707 1813.3,298.476 1815.48,296.247 1817.62,294.019 1819.8,291.793 1821.94,289.567 1824.13,287.344 1826.27,285.122 1828.46,282.902 1830.6,280.682 1832.8,278.466 1834.94,276.249 1837.14,274.035 1838.85,272.265 1841.05,270.054 1842.77,268.286 1844.87,266.176 1846.58,264.508 1848.48,262.592 1849.9,261.118 1851.71,259.303 1853.13,257.93 1854.74,256.309 1855.97,255.031 1857.48,253.511 1858.8,252.235 1860.12,250.909 1861.25,249.73 1862.47,248.503 1863.59,247.424 1864.71,246.294 1865.65,245.312 1866.67,244.282 1867.6,243.399 1868.52,242.465 1869.36,241.581 1870.19,240.747 1871.02,239.962 1871.75,239.225 1872.39,238.538 1873.03,237.9 1873.66,237.311 1874.29,236.672 1874.84,236.083 1875.37,235.543 1875.91,235.053 1876.44,234.512 1876.89,234.021 1877.33,233.58 1877.76,233.187 1878.23,232.723 1878.59,232.308 1878.97,231.928 1879.38,231.563 1879.74,231.204 1880.05,230.848 1880.31,230.582 1880.67,230.268 1880.92,230.015 1881.11,229.784 1881.33,229.56 1881.6,229.338 1881.82,229.116 1881.99,228.895 1882.21,228.674 1882.48,228.453 1882.7,228.232 1882.8,228.085 1883,227.889 1883.18,227.747 1883.37,227.552 1883.47,227.411 1883.6,227.281 1883.77,227.155 1883.9,227.028 1883.98,226.902 1884.1,226.776 1884.27,226.649 1884.4,226.523 1884.48,226.397 1884.61,226.271 1884.71,226.208 1884.83,226.095 " />
</g>

<g fill="none" stroke="#edb120" stroke-opacity="1" stroke-width="3.73333" stroke-linecap="butt" stroke-linejoin="round" transform="matrix(0.388571,0,0,0.386095,-280.984,-41.0991)"
font-family="Helvetica" font-size="26" font-weight="400" font-style="normal" 
>
<polyline fill="none" vector-effect="none" points="764.647,1221.47 765.088,1220.9 765.971,1220.02 767.296,1218.83 769.059,1217.07 771.264,1214.99 773.465,1212.78 775.667,1210.45 777.871,1208.24 780.076,1205.91 782.283,1203.71 784.491,1201.64 786.695,1199.43 788.9,1197.36 791.101,1195.15 793.302,1192.81 795.507,1190.61 797.711,1188.27 799.919,1186.07 802.126,1184 804.331,1181.79 806.536,1179.72 808.737,1177.51 810.938,1175.18 813.143,1172.97 815.347,1170.64 817.555,1168.43 819.762,1166.36 821.967,1164.16 824.171,1162.09 826.373,1159.88 828.574,1157.54 830.779,1155.33 832.983,1153 835.191,1150.8 837.398,1148.73 839.603,1146.52 841.807,1144.45 844.008,1142.24 846.21,1139.9 848.414,1137.7 850.619,1135.36 852.826,1133.16 855.034,1131.09 857.238,1128.89 859.443,1126.81 861.645,1124.87 863.849,1123.57 866.049,1122.64 868.254,1122.07 870.474,1121.85 872.725,1121.97 874.995,1122.17 877.288,1122.43 879.612,1122.74 881.973,1123.12 884.312,1123.29 886.691,1123.52 889.037,1123.55 891.426,1123.62 893.768,1123.5 896.157,1123.43 898.488,1123.16 900.75,1122.7 902.936,1122.06 905.169,1121.48 907.315,1120.72 909.369,1119.79 911.322,1118.69 913.172,1117.44 914.912,1116.05 916.54,1114.51 918.053,1112.84 919.617,1111.24 921.061,1109.51 922.382,1107.65 923.578,1105.68 924.65,1103.6 925.597,1101.4 926.419,1099.11 926.927,1096.53 926.937,1093.5 926.658,1090.21 925.918,1086.46 924.936,1082.43 923.919,1078.29 922.698,1073.85 921.476,1069.29 920.265,1064.6 919.077,1059.79 917.922,1054.85 916.815,1049.78 915.768,1044.57 914.796,1039.23 914.048,1033.97 913.383,1028.58 912.938,1023.29 912.7,1018.1 912.543,1012.79 912.587,1007.6 912.818,1002.53 913.13,997.348 913.622,992.299 914.281,987.388 915.093,982.619 915.977,977.744 917.008,973.017 918.172,968.443 919.458,964.022 920.854,959.755 922.306,955.385 923.861,951.174 925.51,947.122 927.241,943.227 929.044,939.489 930.911,935.907 932.832,932.479 934.783,928.942 936.785,925.561 938.83,922.332 940.91,919.254 943.013,916.063 945.15,913.024 947.312,910.133 949.495,907.388 951.694,904.524 953.911,901.807 956.142,899.232 958.381,896.797 960.63,894.238 962.885,891.82 965.152,889.276 967.425,886.873 969.7,884.607 971.983,882.213 974.267,879.957 976.55,877.834 978.838,875.58 981.124,873.46 983.415,871.21 985.704,869.093 987.988,867.107 990.274,864.987 992.555,862.998 994.838,860.875 997.117,858.883 999.397,856.756 1001.67,854.761 1003.95,852.631 1006.22,850.633 1008.5,848.5 1010.77,846.498 1013.03,844.623 1015.29,842.612 1017.55,840.467 1019.81,838.452 1022.07,836.565 1024.32,834.54 1026.57,832.383 1028.81,830.355 1031.06,828.456 1033.29,826.419 1035.53,824.249 1037.77,822.209 1040,820.035 1042.24,817.992 1044.47,815.816 1046.7,813.77 1048.93,811.59 1051.16,809.541 1053.38,807.358 1055.61,805.306 1057.83,803.12 1060.05,801.065 1062.27,798.876 1064.49,796.817 1066.71,794.625 1068.92,792.563 1071.14,790.368 1073.35,788.304 1075.56,786.105 1077.77,784.038 1079.98,781.836 1082.19,779.765 1084.39,777.561 1086.6,775.487 1088.8,773.279 1091,771.203 1130.67,768.887 1134.75,766.747 1138.77,764.526 1142.75,762.375 1146.67,760.149 1150.54,757.857 1154.36,755.636 1158.13,753.355 1161.85,751.14 1165.51,748.868 1169.12,746.658 1172.68,744.502 1176.17,742.288 1179.58,740.024 1182.94,737.815 1186.23,735.653 1189.45,733.439 1192.58,731.182 1195.65,728.973 1198.65,726.806 1201.56,724.594 1204.38,722.341 1207.13,720.133 1209.8,717.886 1212.38,715.682 1214.88,713.515 1217.29,711.307 1219.61,709.062 1221.85,706.858 1223.99,704.691 1226.05,702.483 1228.02,700.238 1229.91,698.034 1231.71,695.868 1233.42,693.661 1235.05,691.414 1236.59,689.21 1238.06,686.963 1239.45,684.761 1240.77,682.603 1242.01,680.398 1243.17,678.147 1244.27,675.944 1245.31,673.791 1246.27,671.586 1247.16,669.328 1248,667.125 1248.78,664.979 1249.5,662.775 1250.15,660.508 1250.76,658.305 1251.33,656.167 1251.83,653.963 1252.28,651.687 1252.69,649.483 1253.07,647.356 1216.52,645.151 1218.72,642.816 1220.93,640.615 1223.14,638.544 1225.34,636.339 1227.55,634.004 1229.75,631.803 1231.96,629.471 1234.17,627.273 1236.38,625.205 1238.59,623.004 1240.8,620.672 1243.01,618.473 1245.22,616.406 1247.43,614.204 1249.63,611.872 1251.84,609.674 1254.06,607.606 1256.26,605.405 1258.47,603.073 1260.68,600.875 1262.89,598.807 1265.1,596.605 1267.31,594.273 1269.52,592.075 1271.73,590.007 1273.94,587.806 1276.14,585.474 1278.35,583.276 1280.56,581.208 1282.77,579.007 1284.98,576.675 1287.19,574.476 1289.4,572.409 1291.61,570.207 1293.82,567.875 1296.03,565.677 1298.24,563.609 1300.44,561.408 1302.65,559.076 1304.86,556.878 1307.07,554.81 1309.28,552.608 1311.49,550.276 1313.7,548.078 1315.91,545.749 1318.12,543.554 1320.34,541.489 1322.55,539.291 1324.76,536.962 1326.97,534.767 1329.19,532.702 1331.4,530.504 1333.61,528.175 1335.82,525.98 1338.03,523.915 1340.24,521.717 1342.46,519.388 1344.67,517.193 1346.88,515.128 1349.09,512.93 1351.3,510.601 1353.52,508.406 1355.73,506.08 1357.95,503.627 1360.18,501.31 1362.4,498.866 1364.64,496.298 1366.89,493.869 1369.14,491.317 1371.41,488.643 1373.69,486.113 1375.99,483.461 1378.29,480.953 1380.62,478.324 1382.95,475.839 1385.29,473.233 1387.65,470.77 1390.02,468.188 1392.4,465.748 1394.8,463.188 1397.2,460.772 1399.6,458.497 1402.02,456.097 1404.43,453.838 1406.87,451.456 1409.32,448.954 1411.84,446.076 1414.43,442.835 1417.08,439.5 1419.85,435.82 1422.71,432.066 1425.73,427.989 1428.88,423.863 1432.18,419.695 1435.55,415.746 1439.06,411.764 1442.73,407.758 1446.57,403.74 1450.47,399.962 1454.21,396.893 1458.3,393.321 1461.95,390.914 1466.21,387.534 1469.97,385.298 1474.37,382.118 1478.23,380.057 1481.91,378.388 1486.27,375.794 1490.01,374.266 1493.69,372.89 1497.46,371.45 1500.55,370.997 1504.34,369.605 1507.43,369.191 1511.24,367.847 1514.33,367.471 1518.16,366.175 1521.26,365.838 1524.77,364.994 1527.54,365.085 1530.56,364.854 1533.33,364.925 1535.86,365.29 1538.32,365.733 1540.7,366.254 1542.86,367.063 1544.96,367.943 1547.01,368.894 1549,369.915 1550.94,371.006 1552.98,371.94 1554.97,372.945 1556.92,374.023 1558.96,374.936 1561.07,375.684 1563.14,376.508 1565.28,377.165 1567.39,377.899 1569.55,378.462 1571.77,378.856 1573.96,379.331 1576.19,379.635 1578.47,379.769 1580.71,379.989 1582.99,380.037 1585.29,379.916 1587.57,379.885 1589.87,379.684 1592.18,379.316 1594.51,378.783 1596.82,378.347 1599.13,377.745 1601.45,376.982 1603.76,376.06 1606.06,375.242 1608.36,374.264 1610.65,373.131 1612.94,371.845 1615.22,370.671 1617.48,369.344 1619.74,367.867 1621.99,366.244 1624.23,364.739 1626.46,363.088 1628.68,361.293 1630.89,359.621 1633.09,357.805 1635.29,355.849 1637.48,354.018 1639.66,352.047 1641.83,349.94 1644,347.96 1646.16,345.843 1648.33,343.854 1650.48,341.729 1652.63,339.469 1654.78,337.341 1656.93,335.079 1659.08,332.947 1661.22,330.682 1663.36,328.547 1665.5,326.279 1667.64,323.88 1669.78,321.615 1671.92,319.22 1674.06,316.957 1676.21,314.565 1678.35,312.305 1680.5,309.916 1682.65,307.66 1684.8,305.273 1686.95,303.02 1689.11,300.636 1691.26,298.386 1693.42,296.005 1695.58,293.758 1697.74,291.38 1699.9,289.136 1702.06,286.761 1704.23,284.52 1706.4,282.149 1708.57,279.91 1710.74,277.542 1712.91,275.307 1715.08,272.941 1717.26,270.709 1719.43,268.347 1721.61,266.118 1723.79,263.758 1725.97,261.532 1728.16,259.176 1730.34,256.953 1732.53,254.599 1734.71,252.38 1736.9,250.029 1739.1,247.813 1741.29,245.465 1743.48,243.251 1745.24,241.35 1747.44,239.139 1749.19,237.24 1751.3,235.131 1752.96,233.593 1754.87,231.678 1756.33,230.073 1758.14,228.258 1759.51,227.015 1761.12,225.394 1762.39,223.986 1763.91,222.465 1765.18,221.321 1766.5,219.994 1767.67,218.685 1768.9,217.458 1769.97,216.51 1771.1,215.38 1772.07,214.267 1773.1,213.236 1773.98,212.484 1774.91,211.551 1775.79,210.536 1776.62,209.702 1777.4,209.047 1778.14,208.311 1778.82,207.492 1779.46,206.854 1780.04,206.396 1780.68,205.758 1781.26,205.038 1781.8,204.498 1782.29,204.138 1782.83,203.598 1783.32,202.976 1783.76,202.534 1784.15,202.272 1784.61,201.809 1785.02,201.263 1785.4,200.883 1785.77,200.648 1786.12,200.289 1786.48,199.802 1786.74,199.537 1787.06,199.353 1787.31,199.101 1787.54,198.739 1787.76,198.514 1787.98,198.423 1788.2,198.202 1788.42,197.85 1788.64,197.629 1788.86,197.539 1789.08,197.318 1789.23,197.04 1789.42,196.844 1789.57,196.832 1789.76,196.638 1789.9,196.366 1790.03,196.236 1790.16,196.24 1790.28,196.113 1790.41,195.856 1790.53,195.73 1790.66,195.735 1790.79,195.608 1790.91,195.351 1791.04,195.225 1791.1,195.293 1791.21,195.181 " />
</g>

<g fill="none" stroke="#7e2f8e" stroke-opacity="1" stroke-width="3.73333" stroke-linecap="butt" stroke-linejoin="round" transform="matrix(0.388571,0,0,0.386095,-280.984,-41.0991)"
font-family="Helvetica" font-size="26" font-weight="400" font-style="normal" 
>
<polyline fill="none" vector-effect="none" points="858.175,1315 858.486,1314.56 859.369,1313.68 860.824,1312.36 862.587,1310.59 864.922,1308.39 867.124,1306.18 869.195,1303.97 871.399,1301.77 873.473,1299.57 875.68,1297.36 878.019,1295.16 880.223,1292.96 882.558,1290.75 884.76,1288.55 886.83,1286.34 889.035,1284.13 891.109,1281.93 893.316,1279.73 895.654,1277.53 897.859,1275.32 900.194,1273.12 902.395,1270.91 904.466,1268.7 906.671,1266.5 908.744,1264.29 910.952,1262.09 913.29,1259.89 915.495,1257.69 917.83,1255.48 920.031,1253.27 922.102,1251.07 924.306,1248.86 926.38,1246.66 928.588,1244.46 930.926,1242.26 933.13,1240.05 935.465,1237.85 937.667,1235.64 939.738,1233.43 941.942,1231.23 944.016,1229.02 946.224,1226.82 948.562,1224.62 950.766,1222.42 953.101,1220.21 955.564,1218 958.673,1215.78 962.152,1213.52 965.991,1211.19 970.177,1208.77 974.699,1206.21 979.281,1203.53 983.915,1200.69 988.592,1197.7 993.303,1194.54 997.783,1191.26 1002.29,1187.81 1006.55,1184.25 1010.83,1180.52 1014.86,1176.71 1018.9,1172.72 1022.68,1168.66 1026.23,1164.54 1029.53,1160.38 1032.83,1156.07 1035.9,1151.73 1038.73,1147.38 1041.33,1143.02 1043.72,1138.68 1045.91,1134.37 1047.89,1130.08 1049.68,1125.84 1051.49,1121.48 1053.11,1117.17 1054.55,1112.92 1055.81,1108.73 1056.91,1104.61 1057.86,1100.57 1058.66,1096.61 1059.15,1092.93 1059.15,1089.72 1058.88,1086.79 1058.17,1084.33 1057.2,1082.15 1056.18,1080.04 1054.9,1078.19 1053.55,1076.39 1052.15,1074.66 1050.69,1072.98 1049.16,1071.34 1047.57,1069.74 1045.91,1068.18 1044.19,1066.64 1042.63,1064.98 1041,1063.35 1039.53,1061.6 1038.24,1059.76 1036.87,1057.94 1035.67,1056.03 1034.64,1054.04 1033.55,1052.07 1032.63,1050.03 1031.88,1047.93 1031.31,1045.77 1030.66,1043.64 1030.19,1041.46 1029.9,1039.24 1029.78,1036.99 1029.83,1034.71 1029.8,1032.46 1029.94,1030.18 1030.25,1027.9 1030.73,1025.6 1031.37,1023.3 1032.17,1021 1033.14,1018.7 1034,1016.41 1035.02,1014.13 1036.19,1011.86 1037.52,1009.6 1038.73,1007.35 1040.1,1005.1 1041.62,1002.87 1043.28,1000.65 1044.83,998.443 1046.52,996.244 1048.35,994.057 1050.33,991.879 1052.18,989.705 1054.17,987.541 1056.03,985.379 1058.04,983.229 1060.18,981.09 1062.19,978.948 1064.34,976.818 1066.62,974.695 1068.77,972.567 1071.06,970.447 1073.22,968.322 1075.51,966.205 1077.92,964.094 1080.21,961.974 1082.63,959.859 1084.91,957.736 1087.32,955.618 1089.6,953.491 1092.01,951.37 1094.29,949.24 1096.7,947.115 1098.97,944.983 1101.38,942.854 1103.91,940.726 1106.31,938.588 1108.57,936.442 1110.96,934.301 1113.48,932.158 1115.86,930.007 1118.11,927.849 1120.5,925.694 1123,923.537 1125.38,921.372 1127.61,919.202 1129.98,917.033 1132.22,914.86 1134.58,912.688 1136.81,910.512 1139.18,908.336 1141.41,906.157 1143.77,903.978 1145.99,901.796 1148.35,899.614 1150.57,897.428 1152.92,895.243 1155.14,893.054 1157.49,890.866 1159.71,888.674 1162.06,886.482 1164.27,884.287 1166.62,882.092 1168.83,879.894 1171.17,877.696 1173.38,875.495 1175.71,873.293 1177.92,871.089 1180.25,868.884 1182.46,866.677 1184.79,864.469 1186.88,824.79 1189.15,820.696 1191.34,816.658 1193.6,812.653 1195.78,808.706 1197.89,804.82 1200.08,800.974 1202.21,797.192 1204.4,793.456 1206.54,789.785 1208.74,786.166 1210.99,782.601 1213.19,779.104 1215.33,775.677 1217.53,772.313 1219.78,769.013 1221.98,765.787 1224.13,762.638 1226.33,759.562 1228.57,756.562 1230.77,753.64 1232.92,750.8 1235.12,748.044 1237.29,745.372 1239.49,742.788 1241.73,740.289 1243.93,737.875 1246.1,735.548 1248.3,733.313 1250.54,731.165 1252.74,729.102 1254.91,727.127 1257.11,725.241 1259.36,723.441 1261.56,721.723 1263.72,720.089 1265.93,718.54 1268.09,717.074 1270.29,715.687 1272.54,714.373 1274.75,713.134 1276.91,711.972 1279.11,710.88 1281.37,709.85 1283.57,708.889 1285.72,707.999 1287.93,707.168 1290.19,706.389 1292.4,705.672 1294.54,705.021 1296.74,704.417 1299.02,703.856 1301.22,703.352 1303.35,702.909 1305.56,702.504 1307.84,702.132 1310.05,738.679 1312.12,736.475 1314.33,734.273 1316.66,732.072 1318.87,729.867 1320.94,727.663 1323.15,725.461 1325.23,723.26 1327.44,721.061 1329.78,718.863 1331.99,716.662 1334.06,714.46 1336.27,712.262 1338.62,710.064 1340.82,707.863 1342.9,705.661 1345.11,703.463 1347.45,701.265 1349.66,699.063 1351.74,696.862 1353.95,694.663 1356.29,692.465 1358.5,690.264 1360.57,688.062 1362.78,685.864 1365.13,683.666 1367.33,681.464 1369.41,679.263 1371.62,677.064 1373.96,674.866 1376.17,672.665 1378.25,670.463 1380.46,668.265 1382.8,666.067 1385.01,663.866 1387.08,661.664 1389.29,659.466 1391.63,657.268 1393.84,655.066 1395.92,652.865 1398.13,650.666 1400.47,648.468 1402.68,646.267 1404.75,644.065 1406.97,641.867 1409.05,639.668 1411.26,637.473 1413.6,635.278 1415.81,633.08 1417.89,630.881 1420.11,628.686 1422.45,626.491 1424.66,624.293 1426.74,622.094 1428.96,619.899 1431.3,617.704 1433.51,615.506 1435.59,613.307 1437.81,611.112 1440.15,608.917 1442.36,606.719 1444.44,604.52 1446.65,602.325 1448.74,600.129 1450.69,597.935 1452.78,595.748 1454.75,593.562 1456.59,591.38 1458.57,589.208 1460.43,587.038 1462.16,584.873 1464.04,582.722 1465.79,580.573 1467.69,578.441 1469.46,576.309 1471.38,574.195 1473.18,572.082 1475.12,569.986 1476.94,567.89 1478.89,565.814 1480.73,563.736 1482.71,561.679 1484.83,559.642 1486.82,557.599 1488.96,555.576 1490.96,553.547 1492.85,551.513 1494.36,549.447 1495.5,547.347 1496.54,545.245 1497.22,543.098 1497.82,540.941 1498.08,538.717 1498.27,536.471 1498.39,534.197 1498.7,531.964 1498.95,529.699 1499.13,527.399 1499.26,525.057 1499.59,522.771 1500.57,520.769 1501.01,518.503 1502.56,516.794 1503.11,514.551 1504.73,512.915 1505.38,510.699 1507.08,509.14 1509.14,507.824 1510.23,505.873 1512.34,504.635 1514.56,503.501 1516.69,502.313 1519.78,501.86 1521.92,500.699 1525.01,500.285 1527.17,499.151 1530.27,498.776 1532.44,497.67 1535.54,497.333 1538.13,496.585 1541.64,496.599 1544.84,496.349 1548.35,496.338 1552.16,496.55 1556.09,496.803 1560.12,497.09 1564.47,497.555 1568.93,498.022 1573.51,498.479 1578.21,498.917 1583.03,499.323 1587.75,499.557 1592.58,499.754 1597.53,499.903 1602.37,499.877 1607.09,499.689 1611.92,499.454 1616.62,499.062 1621.44,498.619 1626.12,498.024 1630.67,497.289 1635.32,496.505 1639.83,495.587 1644.2,494.547 1648.68,493.46 1653,492.256 1657.18,490.946 1661.46,489.592 1665.58,488.138 1669.55,486.594 1673.37,484.97 1677.3,483.31 1681.07,481.575 1684.68,479.774 1688.15,477.915 1691.72,476.029 1695.14,474.089 1698.4,472.103 1701.52,470.078 1704.74,468.033 1707.82,465.953 1710.75,463.843 1713.54,461.71 1716.44,459.563 1719.2,457.396 1721.81,455.212 1724.55,453.018 1727.14,450.809 1729.59,448.59 1732.17,446.363 1734.61,444.128 1736.91,441.888 1739.34,439.642 1741.63,437.392 1744.05,435.136 1746.33,432.877 1748.48,430.617 1750.76,428.355 1752.9,426.093 1755.18,423.827 1757.32,421.562 1759.59,419.293 1761.73,417.025 1763.74,414.76 1765.88,412.495 1767.89,410.234 1770.04,407.971 1772.05,405.713 1774.2,403.453 1776.22,401.197 1778.37,398.941 1780.39,396.688 1782.55,394.435 1784.57,392.185 1786.73,389.934 1788.76,387.687 1790.92,385.44 1792.95,383.195 1795.11,380.951 1797.15,378.709 1799.31,376.468 1801.35,374.229 1803.52,371.991 1805.56,369.755 1807.73,367.52 1809.78,365.286 1811.95,363.054 1814,360.824 1816.18,358.595 1818.23,356.367 1820.41,354.142 1822.46,351.917 1824.65,349.694 1826.7,347.472 1828.89,345.252 1830.95,343.033 1833.14,340.817 1835.21,338.6 1837.4,336.387 1839.03,334.616 1841.22,332.406 1842.85,330.637 1844.96,328.528 1846.75,326.86 1848.66,324.944 1849.99,323.47 1851.8,321.655 1853.3,320.281 1854.91,318.66 1856.05,317.383 1857.57,315.863 1858.97,314.587 1860.29,313.26 1861.33,312.082 1862.56,310.855 1863.76,309.776 1864.89,308.646 1865.73,307.664 1866.76,306.634 1867.77,305.75 1868.7,304.817 1869.45,303.933 1870.28,303.099 1871.19,302.314 1871.93,301.577 1872.48,300.889 1873.11,300.252 1873.83,299.663 1874.47,299.024 1874.92,298.435 1875.46,297.895 1876.08,297.404 1876.62,296.864 1876.98,296.373 1877.42,295.932 1877.94,295.539 1878.4,295.075 1878.68,294.66 1879.06,294.28 1879.56,293.914 1879.91,293.555 1880.14,293.199 1880.4,292.934 1880.85,292.619 1881.1,292.367 1881.2,292.136 1881.42,291.912 1881.77,291.689 1881.99,291.468 1882.08,291.247 1882.3,291.026 1882.65,290.805 1882.87,290.584 1882.89,290.437 1883.08,290.241 1883.36,290.099 1883.55,289.904 1883.56,289.763 1883.69,289.633 1883.95,289.506 1884.07,289.38 1884.07,289.254 1884.19,289.127 1884.45,289.001 1884.57,288.875 1884.57,288.749 1884.69,288.622 1884.89,288.559 1885,288.447 " />
</g>

<g fill="none" stroke="#0072bd" stroke-opacity="1" stroke-width="1.33333" stroke-linecap="butt" stroke-linejoin="miter" stroke-miterlimit="2" transform="matrix(0.388571,0,0,0.386095,-280.984,-41.0991)"
font-family="Helvetica" font-size="26" font-weight="400" font-style="normal" 
>
<path vector-effect="none" fill-rule="evenodd" d="M930.54,1108.56 L921.326,1124.52 L939.754,1124.52 L930.54,1108.56"/>
<path vector-effect="none" fill-rule="evenodd" d="M969.759,972.076 L960.545,988.036 L978.973,988.036 L969.759,972.076"/>
<path vector-effect="none" fill-rule="evenodd" d="M1068.54,841.995 L1059.33,857.955 L1077.76,857.955 L1068.54,841.995"/>
<path vector-effect="none" fill-rule="evenodd" d="M1198.15,733.791 L1188.94,749.751 L1207.37,749.751 L1198.15,733.791"/>
<path vector-effect="none" fill-rule="evenodd" d="M1289.9,623.451 L1280.68,639.411 L1299.11,639.411 L1289.9,623.451"/>
<path vector-effect="none" fill-rule="evenodd" d="M1400.39,513.449 L1391.17,529.409 L1409.6,529.409 L1400.39,513.449"/>
<path vector-effect="none" fill-rule="evenodd" d="M1527.57,404.001 L1518.35,419.961 L1536.78,419.961 L1527.57,404.001"/>
<path vector-effect="none" fill-rule="evenodd" d="M1668.21,369.646 L1659,385.606 L1677.42,385.606 L1668.21,369.646"/>
<path vector-effect="none" fill-rule="evenodd" d="M1777.43,261.518 L1768.21,277.478 L1786.64,277.478 L1777.43,261.518"/>
<path vector-effect="none" fill-rule="evenodd" d="M1846.5,191.458 L1837.29,207.418 L1855.72,207.418 L1846.5,191.458"/>
</g>

<g fill="none" stroke="#d95319" stroke-opacity="1" stroke-width="1.33333" stroke-linecap="butt" stroke-linejoin="miter" stroke-miterlimit="2" transform="matrix(0.388571,0,0,0.386095,-280.984,-41.0991)"
font-family="Helvetica" font-size="26" font-weight="400" font-style="normal" 
>
<path vector-effect="none" fill-rule="evenodd" d="M963.119,1138.26 L953.905,1154.22 L972.333,1154.22 L963.119,1138.26"/>
<path vector-effect="none" fill-rule="evenodd" d="M1010.79,988.22 L1001.57,1004.18 L1020,1004.18 L1010.79,988.22"/>
<path vector-effect="none" fill-rule="evenodd" d="M1098.7,874.155 L1089.49,890.115 L1107.92,890.115 L1098.7,874.155"/>
<path vector-effect="none" fill-rule="evenodd" d="M1210.92,746.491 L1201.71,762.451 L1220.14,762.451 L1210.92,746.491"/>
<path vector-effect="none" fill-rule="evenodd" d="M1321.03,654.671 L1311.82,670.631 L1330.24,670.631 L1321.03,654.671"/>
<path vector-effect="none" fill-rule="evenodd" d="M1431.47,544.712 L1422.26,560.672 L1440.69,560.672 L1431.47,544.712"/>
<path vector-effect="none" fill-rule="evenodd" d="M1537.9,446.861 L1528.69,462.822 L1547.12,462.822 L1537.9,446.861"/>
<path vector-effect="none" fill-rule="evenodd" d="M1696.76,403.241 L1687.55,419.201 L1705.98,419.201 L1696.76,403.241"/>
<path vector-effect="none" fill-rule="evenodd" d="M1808.99,292.299 L1799.78,308.259 L1818.21,308.259 L1808.99,292.299"/>
<path vector-effect="none" fill-rule="evenodd" d="M1877.76,222.547 L1868.55,238.507 L1886.98,238.507 L1877.76,222.547"/>
</g>

<g fill="none" stroke="#edb120" stroke-opacity="1" stroke-width="1.33333" stroke-linecap="butt" stroke-linejoin="miter" stroke-miterlimit="2" transform="matrix(0.388571,0,0,0.386095,-280.984,-41.0991)"
font-family="Helvetica" font-size="26" font-weight="400" font-style="normal" 
>
<path vector-effect="none" fill-rule="evenodd" d="M868.254,1111.43 L859.04,1127.39 L877.468,1127.39 L868.254,1111.43"/>
<path vector-effect="none" fill-rule="evenodd" d="M912.587,996.959 L903.373,1012.92 L921.802,1012.92 L912.587,996.959"/>
<path vector-effect="none" fill-rule="evenodd" d="M1006.22,839.992 L997.008,855.953 L1015.44,855.953 L1006.22,839.992"/>
<path vector-effect="none" fill-rule="evenodd" d="M1172.68,733.862 L1163.47,749.822 L1181.9,749.822 L1172.68,733.862"/>
<path vector-effect="none" fill-rule="evenodd" d="M1227.55,623.364 L1218.33,639.324 L1236.76,639.324 L1227.55,623.364"/>
<path vector-effect="none" fill-rule="evenodd" d="M1338.03,513.275 L1328.82,529.235 L1347.25,529.235 L1338.03,513.275"/>
<path vector-effect="none" fill-rule="evenodd" d="M1474.37,371.478 L1465.16,387.438 L1483.58,387.438 L1474.37,371.478"/>
<path vector-effect="none" fill-rule="evenodd" d="M1606.06,364.602 L1596.85,380.562 L1615.28,380.562 L1606.06,364.602"/>
<path vector-effect="none" fill-rule="evenodd" d="M1715.08,262.301 L1705.87,278.261 L1724.3,278.261 L1715.08,262.301"/>
<path vector-effect="none" fill-rule="evenodd" d="M1784.15,191.632 L1774.94,207.592 L1793.36,207.592 L1784.15,191.632"/>
</g>

<g fill="none" stroke="#7e2f8e" stroke-opacity="1" stroke-width="1.33333" stroke-linecap="butt" stroke-linejoin="miter" stroke-miterlimit="2" transform="matrix(0.388571,0,0,0.386095,-280.984,-41.0991)"
font-family="Helvetica" font-size="26" font-weight="400" font-style="normal" 
>
<path vector-effect="none" fill-rule="evenodd" d="M965.991,1200.55 L956.776,1216.51 L975.205,1216.51 L965.991,1200.55"/>
<path vector-effect="none" fill-rule="evenodd" d="M1035.67,1045.39 L1026.45,1061.35 L1044.88,1061.35 L1035.67,1045.39"/>
<path vector-effect="none" fill-rule="evenodd" d="M1096.7,936.475 L1087.48,952.435 L1105.91,952.435 L1096.7,936.475"/>
<path vector-effect="none" fill-rule="evenodd" d="M1210.99,771.961 L1201.78,787.921 L1220.21,787.921 L1210.99,771.961"/>
<path vector-effect="none" fill-rule="evenodd" d="M1320.94,717.023 L1311.73,732.983 L1330.16,732.983 L1320.94,717.023"/>
<path vector-effect="none" fill-rule="evenodd" d="M1431.3,607.064 L1422.09,623.024 L1440.51,623.024 L1431.3,607.064"/>
<path vector-effect="none" fill-rule="evenodd" d="M1505.38,500.059 L1496.17,516.019 L1514.6,516.019 L1505.38,500.059"/>
<path vector-effect="none" fill-rule="evenodd" d="M1691.72,465.389 L1682.5,481.349 L1700.93,481.349 L1691.72,465.389"/>
<path vector-effect="none" fill-rule="evenodd" d="M1809.78,354.646 L1800.56,370.606 L1818.99,370.606 L1809.78,354.646"/>
<path vector-effect="none" fill-rule="evenodd" d="M1877.94,284.899 L1868.72,300.859 L1887.15,300.859 L1877.94,284.899"/>
</g>
</g>
</svg>
